<?xml version="1.0" encoding="UTF-8"?>
<svg version="1.1" xmlns="http://www.w3.org/2000/svg" width="1152" height="765">
<path d="M0 0 C0.85823672 -0.00654498 1.71647345 -0.01308995 2.60071734 -0.01983326 C5.5190722 -0.04075525 8.43741666 -0.05439675 11.35581398 -0.06805134 C13.45976404 -0.08139211 15.56371168 -0.09512012 17.6676569 -0.1092037 C23.50035267 -0.14671699 29.33306733 -0.17744187 35.1658096 -0.20671554 C38.91092641 -0.22596055 42.65602959 -0.24693502 46.40113378 -0.26849067 C65.92873534 -0.38071053 85.45639532 -0.47391923 104.9841404 -0.5571413 C106.08292059 -0.56182546 106.08292059 -0.56182546 107.20389837 -0.56660425 C155.36985749 -0.77119869 203.53594395 -0.90474347 251.70223738 -0.99906865 C256.77835397 -1.00902665 261.85446958 -1.01936534 266.93058467 -1.03005745 C352.51196567 -1.21027 438.09552116 -1.23042977 882.22357203 9.03025483 C884.34013731 9.11099661 886.45670779 9.19160072 888.57328022 9.27215487 C955.70433617 11.82709888 1022.82818301 14.54322185 1089.94371168 17.47953696 C1103.61476321 18.07740732 1117.28676194 18.64497985 1130.9607029 19.17332745 C1131.29827799 83.21201777 1131.51889395 147.25087386 1131.64112711 211.29033774 C1131.64817967 214.97369789 1131.65542765 218.65705762 1131.66267967 222.34041739 C1131.87362174 331.22691698 1131.88952425 440.08757165 1128.51148415 548.93113995 C1128.45698914 550.70043882 1128.40249919 552.46973784 1128.34801459 554.23903704 C1126.17241398 624.57194549 1122.98308251 694.8728041 1119.9607029 765.17332745 C1035.2887578 765.65114521 950.61655348 765.98953955 839.0805469 766.23037992 C836.40403372 766.2358156 833.72752077 766.24135546 831.05100787 766.24692935 C741.71022496 766.43265935 652.36731169 766.48049981 214.78434163 756.8879897 C210.8239879 756.735376 206.86361857 756.58317193 202.90324736 756.43101263 C145.96896692 754.24123101 89.04018844 751.92749449 32.12088108 749.37660599 C28.86386617 749.23069808 25.60684998 749.08481894 22.34983253 748.9389677 C21.58500741 748.90468172 20.82018229 748.87039575 20.03218064 748.8350708 C6.34384329 748.22250764 -7.34631652 747.67271566 -21.0392971 747.17332745 C-21.41063775 688.29435038 -21.65027601 629.41513537 -21.78164798 570.5351342 C-21.78673665 568.25707449 -21.7918892 565.97901493 -21.79710644 563.70095551 C-22.05242114 452.05366058 -21.63159248 340.48113376 -15.20885205 150.37610561 C-15.10138761 147.53751109 -14.99437039 144.69890005 -14.88749313 141.86028337 C-13.88652669 115.28329033 -12.85174467 88.70777055 -11.76195335 62.13426495 C-11.72919006 61.33508525 -11.69642676 60.53590555 -11.66267064 59.71250829 C-11.23400141 49.27047233 -10.7938862 38.82898316 -10.34097618 28.38797124 C-10.25507259 26.39387859 -10.17103894 24.39970568 -10.0870204 22.40553272 C-9.93453917 18.80457434 -9.77588568 15.20394723 -9.61511803 11.60335064 C-9.57133925 10.54661913 -9.52756048 9.48988763 -9.48245507 8.40113395 C-9.43866352 7.4528112 -9.39487196 6.50448844 -9.34975338 5.52742863 C-9.31367995 4.70431104 -9.27760652 3.88119345 -9.24043995 3.03313291 C-8.74420547 -1.55514658 -3.5957313 0.01116201 0 0 Z " fill="#01819D" transform="translate(21.039297103881836,-0.17332744598388672)"/>
<path d="M0 0 C0.85823672 -0.00654498 1.71647345 -0.01308995 2.60071734 -0.01983326 C5.5190722 -0.04075525 8.43741666 -0.05439675 11.35581398 -0.06805134 C13.45976404 -0.08139211 15.56371168 -0.09512012 17.6676569 -0.1092037 C23.50035267 -0.14671699 29.33306733 -0.17744187 35.1658096 -0.20671554 C38.91092641 -0.22596055 42.65602959 -0.24693502 46.40113378 -0.26849067 C65.92873534 -0.38071053 85.45639532 -0.47391923 104.9841404 -0.5571413 C106.08292059 -0.56182546 106.08292059 -0.56182546 107.20389837 -0.56660425 C155.36985749 -0.77119869 203.53594395 -0.90474347 251.70223738 -0.99906865 C256.77835397 -1.00902665 261.85446958 -1.01936534 266.93058467 -1.03005745 C352.51196567 -1.21027 438.09552116 -1.23042977 882.22357203 9.03025483 C884.34013731 9.11099661 886.45670779 9.19160072 888.57328022 9.27215487 C951.33049737 11.66063475 1014.08250777 14.17080901 1076.82563782 16.90658569 C1077.73521898 16.94623303 1078.64480014 16.98588038 1079.58194436 17.02672915 C1083.73695478 17.20797587 1087.89193715 17.38981692 1092.04685688 17.5731312 C1105.01702501 18.14221679 1117.98804753 18.65442123 1130.9607029 19.17332745 C1130.9607029 39.30332745 1130.9607029 59.43332745 1130.9607029 80.17332745 C1117.45659882 80.17332745 1117.45659882 80.17332745 1112.34449196 80.00560284 C1111.19579628 79.96878902 1110.0471006 79.93197521 1108.86359596 79.89404583 C1107.6632975 79.85343533 1106.46299904 79.81282482 1105.2263279 79.7709837 C1103.94949135 79.72896328 1102.6726548 79.68694286 1101.35712624 79.6436491 C1098.67122849 79.55500218 1095.98538441 79.46490519 1093.29957008 79.3737669 C1089.9071885 79.2587898 1086.51469288 79.14769924 1083.1221447 79.03776169 C1079.82346313 78.93025388 1076.52490404 78.81917896 1073.2263279 78.7084837 C1072.03412636 78.66989742 1070.84192482 78.63131115 1069.61359596 78.5915556 C1063.48665489 78.38069858 1057.37589601 78.08510286 1051.25855446 77.68040752 C1042.15512027 77.08131534 1033.04754828 76.79889625 1023.9294529 76.52488995 C1022.08574609 76.46754417 1020.24204715 76.40994511 1018.39835548 76.35211468 C1014.46802526 76.2292035 1010.53765575 76.10767819 1006.60724831 75.98726177 C997.14901281 75.69719896 987.69105468 75.39828645 978.2330761 75.09998417 C976.06027532 75.03147641 973.88747206 74.96304759 971.71466637 74.89469624 C948.50395666 74.16450574 925.29448226 73.39990255 902.0857029 72.61082745 C901.15287106 72.57916737 900.22003922 72.54750729 899.25893974 72.51488781 C877.77826858 71.78536993 856.30164018 71.01991428 834.82990456 70.05830669 C810.64945036 68.98523641 786.4533798 68.31954129 762.26113701 67.57483578 C713.66771944 66.07893622 713.66771944 66.07893622 689.72190285 64.99220562 C668.73753947 64.0453595 647.74094708 63.48853486 626.74327183 62.92932224 C623.85525101 62.85207898 620.9672836 62.77293557 618.079319 62.69362164 C616.11358109 62.64050766 614.14776154 62.59044116 612.18194008 62.54051495 C605.62059754 62.36090186 599.0770216 62.08270533 592.52662086 61.67552471 C584.99824435 61.20812754 577.47533868 60.92347157 569.93494797 60.72777081 C567.756846 60.671177 565.57886131 60.61109085 563.40087318 60.55028057 C558.7750605 60.42170626 554.14914298 60.29722143 549.5232029 60.17332745 C543.4202514 60.00973857 537.31736081 59.84422431 531.21460915 59.67332745 C530.10763617 59.64238995 530.10763617 59.64238995 528.97830009 59.61082745 C520.62854642 59.37462125 512.29246148 59.07730361 503.95546913 58.54832745 C496.29703437 58.08742944 488.62907177 57.89124848 480.9607029 57.67332745 C480.23635992 57.65270245 479.51201694 57.63207745 478.76572418 57.61082745 C473.4974744 57.46166991 468.2291033 57.31705192 462.9607029 57.17332745 C456.9606172 57.00964224 450.96058927 56.84417938 444.9607029 56.67332745 C444.23510107 56.65270245 443.50949924 56.63207745 442.76190948 56.61082745 C435.15683876 56.39203317 427.55831847 56.15374376 419.96460915 55.67332745 C411.62495544 55.14575153 403.27751836 54.91024846 394.92554665 54.67332745 C394.20001217 54.65270245 393.47447769 54.63207745 392.72695732 54.61082745 C386.68509186 54.44003178 380.64306532 54.27521493 374.60102272 54.11082745 C369.35494738 53.96789098 364.10894586 53.82259549 358.86304665 53.67332745 C357.78251801 53.64267035 357.78251801 53.64267035 356.68016052 53.61139393 C347.66584755 53.35235722 338.6737691 52.98068354 329.67530251 52.38768291 C323.19654152 52.01381817 316.71177999 51.91292151 310.22428322 51.78517437 C295.06208414 51.479918 279.92142029 50.94587381 264.7732029 50.23582745 C242.14522099 49.17661974 219.50885837 48.53180425 196.86495209 47.92976761 C193.27573217 47.83413005 189.68655986 47.7368262 186.09742165 47.6381712 C185.40556015 47.61916697 184.71369865 47.60016273 184.00087166 47.58058262 C175.49170057 47.34342887 167.01856163 46.97421726 158.52491188 46.41673565 C148.06489334 45.80249084 137.57213088 45.68544055 127.09824562 45.41450787 C99.7705011 44.70472631 72.45327897 43.79708521 45.13798332 42.70984936 C42.66902814 42.61165569 40.20004576 42.51417055 37.73105812 42.41679668 C33.81469057 42.26199281 29.89841902 42.10494746 25.98221779 41.94599247 C24.55550753 41.88815825 23.12878103 41.83072261 21.7020359 41.77375507 C11.44626886 41.36255668 1.20503927 40.79888943 -9.0392971 40.17332745 C-9.03400915 40.91333402 -9.02872119 41.65334059 -9.02327299 42.4157716 C-8.90543811 61.69831035 -9.26471788 80.93177592 -9.96926999 100.20179486 C-10.1081474 104.03347716 -10.24073475 107.86537866 -10.37418175 111.69725323 C-10.60484599 118.29720978 -10.83927626 124.89702329 -11.07645226 131.49674892 C-11.41934034 141.03820869 -11.75625687 150.5798724 -12.09183222 160.12159182 C-12.63676888 175.61180342 -13.18636863 191.10184577 -13.73900414 206.59178448 C-14.27502934 221.61643631 -14.80879416 236.64116571 -15.33959007 251.66600323 C-15.3888755 253.06105559 -15.3888755 253.06105559 -15.43915659 254.48429082 C-15.60401774 259.15116888 -15.76883519 263.81804848 -15.93363094 268.48492885 C-17.29541608 307.04796967 -18.66481234 345.6107373 -20.0392971 384.17332745 C-20.3692971 384.17332745 -20.6992971 384.17332745 -21.0392971 384.17332745 C-21.66521811 347.32096627 -20.06213499 310.49930739 -18.74853865 273.67821101 C-18.41103884 264.21283167 -18.08086099 254.74720054 -17.75076943 245.28156047 C-17.16211623 228.40925546 -16.56660423 211.53719967 -15.96727562 194.66527081 C-15.3862789 178.30935095 -14.81104335 161.95324075 -14.24168968 145.59691143 C-13.61884436 127.70410862 -12.99300256 109.8114156 -12.36178106 91.91890615 C-12.29463926 90.01563485 -12.22749838 88.11236351 -12.16035843 86.20909214 C-12.12732982 85.27294254 -12.09430121 84.33679293 -12.06027173 83.37227516 C-11.82767564 76.77445609 -11.59715722 70.17656628 -11.36737823 63.57864857 C-11.0883442 55.56898137 -10.80581313 47.55944655 -10.51876099 39.55006254 C-10.37242481 35.46477811 -10.22764952 31.37945393 -10.08700752 27.29396915 C-9.95848109 23.56181978 -9.82556404 19.8298546 -9.6890096 16.09799057 C-9.61693719 14.09654153 -9.54963466 12.09492253 -9.48245579 10.09330326 C-9.43866399 8.92117549 -9.3948722 7.74904771 -9.34975338 6.54140091 C-9.31367995 5.52151095 -9.27760652 4.50162099 -9.24043995 3.45082527 C-8.79533619 -1.58899023 -4.0223115 0.01248622 0 0 Z " fill="#131528" transform="translate(21.039297103881836,-0.17332744598388672)"/>
<path d="M0 0 C36.35630869 1.04529322 72.70695781 2.2046632 109.0546875 3.515625 C109.99612909 3.54957501 110.93757068 3.58352501 111.9075408 3.61850381 C122.7715386 4.01051908 133.63544939 4.40491534 144.49932861 4.80020142 C157.18093515 5.26161353 169.86266806 5.71949451 182.54443359 6.17651367 C183.61938465 6.21525317 184.69433571 6.25399267 185.80186105 6.29390609 C191.26196717 6.49065999 196.72207571 6.68734703 202.18218613 6.8839817 C206.57461664 7.04216694 210.96704466 7.20042126 215.35947037 7.35873985 C257.22159943 8.86754242 299.08419308 10.36279427 340.947734 11.83193529 C341.86347848 11.86407267 342.77922297 11.89621005 343.72271729 11.92932129 C344.63279222 11.9612582 345.54286716 11.99319511 346.48052013 12.0260998 C352.69293115 12.24425625 358.90528624 12.46395577 365.11761475 12.68444824 C375.11214878 13.0390407 385.10678706 13.3905577 395.1015625 13.73828125 C395.89388259 13.76587194 396.68620269 13.79346263 397.50253248 13.8218894 C416.17676482 14.47111181 434.85159017 15.0691692 453.53027344 15.57568359 C454.37238428 15.59854081 455.21449512 15.62139803 456.08212447 15.64494789 C464.17992627 15.86406518 472.27782798 16.07850931 480.37605667 16.28127241 C483.30582564 16.35498109 486.23553849 16.43078926 489.16524744 16.5068419 C491.12933929 16.55691002 493.09351346 16.60371682 495.05768967 16.6503582 C502.87345013 16.85312183 510.65627289 17.26255931 518.45607376 17.77501392 C522.31882977 18.0202409 526.1669629 18.18097532 530.03588867 18.28125 C530.70009323 18.29929687 531.36429779 18.31734375 532.04862976 18.3359375 C533.45173588 18.37372283 534.85487615 18.41026093 536.2580471 18.44555664 C538.49351044 18.50190412 540.72884638 18.56205634 542.96418762 18.62304688 C548.50623237 18.77357281 554.04842316 18.91835992 559.59063721 19.0625 C564.30613221 19.18528249 569.02154189 19.31072208 573.73687172 19.43969727 C575.91283581 19.49818218 578.08887219 19.5528905 580.26493835 19.60742188 C586.33770423 19.76819668 592.38668156 19.99282067 598.44213867 20.49511719 C605.47313014 21.07746303 612.50306999 21.30622682 619.55260086 21.50914383 C622.05749057 21.58135906 624.56223779 21.65750813 627.06698608 21.73446655 C630.78265581 21.84832814 634.49836444 21.96076745 638.21411133 22.07208252 C648.63522352 22.38492385 659.05595316 22.7099322 669.4765625 23.0390625 C671.17363468 23.0926272 671.17363468 23.0926272 672.90499115 23.14727402 C692.67760563 23.77417645 712.44738352 24.46942123 732.21678305 25.18943024 C734.52545067 25.27351082 736.83412271 25.35746925 739.14279556 25.44140625 C753.65991749 25.96941981 768.17692083 26.50054291 782.69358075 27.04111946 C788.5163615 27.25780845 794.33922986 27.47204428 800.16215694 27.68476403 C803.52703927 27.80782018 806.89184402 27.93242276 810.25657272 28.05964279 C825.60972481 28.63991899 840.9574143 29.07674527 856.3182447 29.38166606 C883.72311189 29.92800165 911.11099683 30.86821816 938.50340723 31.84542891 C945.54566937 32.09652996 952.58805935 32.34396022 959.63045545 32.5912708 C972.17787608 33.03199453 984.72519987 33.47541252 997.27246094 33.9206543 C1009.42312531 34.3518167 1021.57383625 34.7816296 1033.72460938 35.2097168 C1034.48018196 35.23633703 1035.23575454 35.26295727 1036.01422326 35.29038418 C1039.80667964 35.42399148 1043.59913692 35.55757319 1047.39159465 35.6911422 C1078.59453709 36.79013158 1109.79731509 37.89372162 1141 39 C1141 45.93 1141 52.86 1141 60 C1054.5404756 60.48602647 968.08074358 60.82794214 860.119844 61.05705247 C857.44333082 61.06248816 854.76681787 61.06802801 852.09030497 61.0736019 C762.74952206 61.2593319 673.4066088 61.30717237 235.82363874 51.71466225 C231.863285 51.56204856 227.90291567 51.40984449 223.94254446 51.25768518 C167.00826403 49.06790356 110.07948554 46.75416705 53.16017818 44.20327854 C49.90316328 44.05737064 46.64614708 43.9114915 43.38912964 43.76564026 C42.62430451 43.73135428 41.85947939 43.6970683 41.07147775 43.66174335 C27.38295798 43.04917203 13.69287129 42.50860537 0 42 C0 28.14 0 14.28 0 0 Z " fill="#131528" transform="translate(0,705)"/>
<path d="M0 0 C0.68231186 -0.00095673 1.36462372 -0.00191345 2.06761169 -0.00289917 C3.5142323 -0.00357951 4.96085597 -0.00173538 6.4074707 0.00244141 C8.58877719 0.00773409 10.76987228 0.0025217 12.95117188 -0.00390625 C14.3632817 -0.00324432 15.77539139 -0.00196079 17.1875 0 C19.0912439 0.00169189 19.0912439 0.00169189 21.03344727 0.00341797 C24.01181878 0.05569421 26.93132401 0.30328179 29.89257812 0.62353516 C35.12770781 1.18155626 40.32436194 1.33606614 45.5859375 1.4140625 C46.56509628 1.43206406 47.54425507 1.45006561 48.55308533 1.46861267 C50.63161405 1.5067013 52.71017316 1.54316216 54.78875732 1.57809448 C60.18229945 1.67010975 65.57550309 1.77896318 70.96875 1.88671875 C72.02316284 1.90759048 73.07757568 1.92846222 74.16394043 1.94996643 C82.42205706 2.11523735 90.67814043 2.30104107 98.93359375 2.5703125 C99.9505835 2.59738281 100.96757324 2.62445313 102.01538086 2.65234375 C111.50954329 2.99092683 119.50077227 3.46906879 126.49609375 10.3515625 C130.35282793 14.74823947 130.45179048 19.04418521 130.30078125 24.70703125 C129.70524964 30.6719527 126.5050571 33.99878728 122.265625 37.8359375 C116.13859282 41.43624668 109.48394094 41.37244221 102.61328125 41.08447266 C101.70503098 41.055504 100.7967807 41.02653534 99.86100769 40.99668884 C96.88473039 40.89911758 93.90929311 40.78561778 90.93359375 40.671875 C88.85997827 40.60076891 86.78632822 40.53066446 84.71264648 40.46151733 C79.27404825 40.27748706 73.83602462 40.07990912 68.39801025 39.87945557 C62.8411452 39.67703874 57.28384208 39.48750787 51.7265625 39.296875 C40.83677381 38.9214269 29.94754887 38.53165747 19.05859375 38.1328125 C19.05859375 37.4728125 19.05859375 36.8128125 19.05859375 36.1328125 C18.27210449 36.15375977 17.48561523 36.17470703 16.67529297 36.19628906 C13.09485777 36.27969003 9.51462733 36.33155026 5.93359375 36.3828125 C4.69609375 36.41632813 3.45859375 36.44984375 2.18359375 36.484375 C-9.18207225 36.60658646 -9.18207225 36.60658646 -13.94140625 32.1328125 C-14.56789063 31.565625 -15.194375 30.9984375 -15.83984375 30.4140625 C-20.65389269 24.60663839 -20.60144338 19.46655835 -19.94140625 12.1328125 C-19.28140625 12.1328125 -18.62140625 12.1328125 -17.94140625 12.1328125 C-17.92078125 11.4315625 -17.90015625 10.7303125 -17.87890625 10.0078125 C-16.5027087 5.78747336 -13.53548243 3.61256812 -9.94140625 1.1328125 C-6.44568931 -0.03242648 -3.68778162 0.00329792 0 0 Z " fill="#065E79" transform="translate(602.94140625,406.8671875)"/>
<path d="M0 0 C1.21989183 -0.00041825 1.21989183 -0.00041825 2.46442795 -0.00084496 C3.34843906 0.00504332 4.23245018 0.01093159 5.14324951 0.01699829 C6.07418049 0.02049475 7.00511147 0.0239912 7.96425247 0.02759361 C25.85900778 0.13676228 43.74581413 0.86076412 61.62762451 1.50039673 C66.36945732 1.66838991 71.11141364 1.82050736 75.85418701 1.9593811 C81.63715175 2.12888478 87.41855346 2.32610938 93.19992828 2.54301071 C95.38595886 2.62041923 97.57235416 2.68818973 99.75899506 2.74583817 C102.80991525 2.82822128 105.85754976 2.94627527 108.90692139 3.07266235 C109.79534729 3.08849365 110.68377319 3.10432495 111.59912109 3.12063599 C118.33259201 3.45643795 122.8358529 5.76343277 127.9586792 10.1210022 C131.98758707 14.68999739 132.70183437 19.37706484 132.47821045 25.39834595 C131.38953879 31.10364029 127.86135861 34.74930308 123.2711792 38.0585022 C119.07976827 39.9842856 115.88376914 40.24954169 111.29852295 40.2538147 C110.63518448 40.25477142 109.97184601 40.25572815 109.28840637 40.25671387 C107.87535508 40.25739492 106.46230067 40.25554583 105.04925537 40.25137329 C102.95583382 40.24615101 100.86263976 40.25125288 98.76922607 40.25772095 C91.03685264 40.26206106 83.35119077 40.01662954 75.63291931 39.54071045 C68.20922613 39.09953396 60.78210021 38.85468308 53.3493042 38.6210022 C52.04352921 38.57982269 50.73775421 38.53864319 49.39241028 38.49621582 C44.64437749 38.34768358 39.89624303 38.20251831 35.14807129 38.0585022 C31.74876516 37.95536779 28.34950058 37.85116542 24.95031738 37.74404907 C22.4281366 37.66474783 19.90588188 37.58774811 17.38354492 37.51358032 C11.35247616 37.32291756 5.32856939 37.06366493 -0.69464111 36.6991272 C-1.82492737 36.63112915 -2.95521362 36.5631311 -4.11975098 36.49307251 C-8.26156482 35.96560062 -10.02347977 34.98000949 -13.0413208 32.1210022 C-13.7838208 31.4197522 -14.5263208 30.7185022 -15.2913208 29.9960022 C-18.33555796 24.99475543 -19.52640006 19.64341433 -18.4163208 13.8710022 C-14.46240812 5.96317683 -9.40537256 -0.01336324 0 0 Z " fill="#01B5D6" transform="translate(439.04132080078125,400.8789978027344)"/>
<path d="M0 0 C0.77383026 0.00737686 1.54766052 0.01475372 2.34494019 0.02235413 C12.20925894 0.15217479 22.06768085 0.57473215 31.92364502 0.98123169 C51.51123328 1.7877753 71.09515625 2.46021433 90.69580078 2.84155273 C116.37400804 3.36228929 116.37400804 3.36228929 125.7578125 12.74609375 C127.99075708 18.08574383 127.67660629 23.47118875 127.1953125 29.18359375 C126.8653125 29.84359375 126.5353125 30.50359375 126.1953125 31.18359375 C125.5353125 31.18359375 124.8753125 31.18359375 124.1953125 31.18359375 C123.9890625 31.76109375 123.7828125 32.33859375 123.5703125 32.93359375 C121.17566876 36.85210169 117.46779928 38.75943149 113.1953125 40.18359375 C111.33259512 40.27801229 109.46667014 40.31430995 107.6015625 40.31640625 C106.4878125 40.31769531 105.3740625 40.31898438 104.2265625 40.3203125 C102.47859375 40.31451172 102.47859375 40.31451172 100.6953125 40.30859375 C98.99375 40.31439453 98.99375 40.31439453 97.2578125 40.3203125 C96.13375 40.31902344 95.0096875 40.31773437 93.8515625 40.31640625 C92.33272461 40.31471436 92.33272461 40.31471436 90.78320312 40.31298828 C87.89611177 40.20886754 85.08974512 39.99264652 82.21850586 39.70654297 C75.21187874 39.04064871 68.20058875 38.86878409 61.16796875 38.68359375 C59.72943618 38.64293844 58.29091398 38.60191487 56.85240173 38.56054688 C53.08404997 38.4528701 49.31560721 38.348878 45.54711914 38.24609375 C41.77551995 38.14312591 38.0039616 38.03871572 34.23242188 37.93359375 C33.49727041 37.91310471 32.76211895 37.89261566 32.00469017 37.87150574 C25.64553786 37.69281797 19.28700605 37.49655471 12.92852783 37.29541016 C9.5591031 37.19448992 6.18989613 37.11428521 2.81982422 37.0390625 C1.02698388 36.98418391 -0.76582606 36.9282965 -2.55859375 36.87109375 C-3.33154282 36.86078125 -4.10449188 36.85046875 -4.90086365 36.83984375 C-9.9567513 36.64607551 -12.89927824 35.36806584 -16.8046875 32.18359375 C-21.27520234 26.34708827 -23.45544302 21.60220673 -22.8046875 14.18359375 C-21.00622441 9.28777755 -18.03925649 5.2465064 -13.8046875 2.18359375 C-9.1459539 0.28482067 -4.96709661 -0.09222791 0 0 Z " fill="#FA6A04" transform="translate(522.8046875,451.81640625)"/>
<path d="M0 0 C0 0.66 0 1.32 0 2 C0.61488281 2.17015625 1.22976562 2.3403125 1.86328125 2.515625 C8.37209302 4.46723044 8.37209302 4.46723044 11.0625 6.75 C13.81539933 13.35695839 11.17069712 20.54765259 9 27 C7.5625 30.125 7.5625 30.125 6 32 C-1.19820511 34.55313911 -12.12490669 34.19200761 -19 31 C-23.21905919 24.99392075 -25.74148797 17.76730337 -25.5703125 10.39453125 C-24.58676456 6.26497724 -22.30343384 4.08875857 -19.06640625 1.46484375 C-13.0438637 -1.41216702 -6.50296058 -0.57449468 0 0 Z " fill="#1D191B" transform="translate(159,0)"/>
<path d="M0 0 C2.64 0 5.28 0 8 0 C7.67 3.96 7.34 7.92 7 12 C8.11375 11.01 9.2275 10.02 10.375 9 C13.75 6 13.75 6 16 6 C16 5.34 16 4.68 16 4 C17.32 4.33 18.64 4.66 20 5 C19.67 5.66 19.34 6.32 19 7 C21.31 7.33 23.62 7.66 26 8 C26 8.66 26 9.32 26 10 C25.34 10 24.68 10 24 10 C23.67 10.99 23.34 11.98 23 13 C21.68 13 20.36 13 19 13 C20.93428786 15.38825035 20.93428786 15.38825035 24.4375 15.125 C25.613125 15.08375 26.78875 15.0425 28 15 C29.66666667 15 31.33333333 15 33 15 C33 14.34 33 13.68 33 13 C30.69 13 28.38 13 26 13 C26.66 11.68 27.32 10.36 28 9 C28.928125 9.04125 29.85625 9.0825 30.8125 9.125 C34.15809719 9.27136339 34.15809719 9.27136339 37 7 C40.6875 7.375 40.6875 7.375 44 8 C44 8.66 44 9.32 44 10 C44.7425 10 45.485 10 46.25 10 C48.5 10 50.75 10 53 10 C53 11.32 53 12.64 53 14 C51.68 13.67 50.36 13.34 49 13 C48.34 13.99 47.68 14.98 47 16 C50.63 16 54.26 16 58 16 C58.495 17.485 58.495 17.485 59 19 C54.33692986 19.04937279 49.67401127 19.08570627 45.01074219 19.10986328 C43.42380117 19.11993188 41.83687875 19.13358767 40.25 19.15087891 C37.97130753 19.17509001 35.69285994 19.18647422 33.4140625 19.1953125 C32.70255035 19.20563507 31.99103821 19.21595764 31.25796509 19.22659302 C29.50368335 19.22699422 27.75003291 19.12202209 26 19 C25.34 18.34 24.68 17.68 24 17 C23.01 17.33 22.02 17.66 21 18 C20.01 18 19.02 18 18 18 C19.91135386 21.53600465 21.62642766 23.78972846 25 26 C21.51527717 26.42670076 18.9813155 26.64789556 15.9765625 24.6640625 C14.25103253 23.16390788 12.59940232 21.63343216 11 20 C10.67 21.32 10.34 22.64 10 24 C8.35 24 6.7 24 5 24 C5 22.35 5 20.7 5 19 C0.77895001 21.72190685 0.77895001 21.72190685 -3 25 C-5.625 25.125 -5.625 25.125 -8 25 C-3.1 21.05277778 -3.1 21.05277778 -0.75 19.8125 C2.09783851 16.86295298 2.03972944 12.98883616 2 9 C1.67 8.67 1.34 8.34 1 8 C0.95936168 6.33382885 0.957279 4.66611905 1 3 C0.34 2.67 -0.32 2.34 -1 2 C-0.67 1.34 -0.34 0.68 0 0 Z " fill="#292B3C" transform="translate(989,33)"/>
<path d="M0 0 C0.020625 0.598125 0.04125 1.19625 0.0625 1.8125 C0.89102466 4.41294618 0.89102466 4.41294618 4.4375 5.625 C6.2009375 6.305625 6.2009375 6.305625 8 7 C10.40450178 9.40450178 10.29609139 10.08233942 10.3125 13.375 C10.24868341 16.42346918 10.09095213 17.83049831 8.625 20.5625 C7 22 7 22 5 22 C4.67 23.65 4.34 25.3 4 27 C-1.47269471 27.33506294 -5.15805789 26.6071996 -10 24 C-11.9375 22.25 -11.9375 22.25 -13 20 C-13.1875 16.25 -13.1875 16.25 -13 13 C-13.99 13 -14.98 13 -16 13 C-14.80100302 9.9168649 -13.52299523 6.93720508 -12 4 C-11.34 4 -10.68 4 -10 4 C-10 3.34 -10 2.68 -10 2 C-6.49223216 0.39644899 -3.85645121 -0.22036864 0 0 Z " fill="#403A6F" transform="translate(153,2)"/>
<path d="M0 0 C7.42857143 -0.28571429 7.42857143 -0.28571429 11 2 C11 1.34 11 0.68 11 0 C12.32 0 13.64 0 15 0 C15 0.99 15 1.98 15 3 C15.639375 3.103125 16.27875 3.20625 16.9375 3.3125 C17.618125 3.539375 18.29875 3.76625 19 4 C19.33 4.99 19.66 5.98 20 7 C20.33 6.01 20.66 5.02 21 4 C21.99 4 22.98 4 24 4 C24.33 4.66 24.66 5.32 25 6 C25.66 5.34 26.32 4.68 27 4 C29.0625 4.4375 29.0625 4.4375 31 5 C31.33 4.67 31.66 4.34 32 4 C34.4375 3.8125 34.4375 3.8125 37 4 C39 6 39 6 39.1953125 7.9453125 C39.13020833 9.96354167 39.06510417 11.98177083 39 14 C36.36 14 33.72 14 31 14 C30.34 12.68 29.68 11.36 29 10 C28.67 11.32 28.34 12.64 28 14 C26.35 14 24.7 14 23 14 C22.67 12.68 22.34 11.36 22 10 C21.67 10.99 21.34 11.98 21 13 C19.68 13 18.36 13 17 13 C16.67 11.68 16.34 10.36 16 9 C15.67 10.32 15.34 11.64 15 13 C12.36 13 9.72 13 7 13 C6.67 11.68 6.34 10.36 6 9 C5.01 9 4.02 9 3 9 C3 10.32 3 11.64 3 13 C2.01 13 1.02 13 0 13 C0 8.71 0 4.42 0 0 Z " fill="#B5DDE6" transform="translate(453,335)"/>
<path d="M0 0 C2.64 0 5.28 0 8 0 C7.67 3.96 7.34 7.92 7 12 C8.11375 11.01 9.2275 10.02 10.375 9 C13.75 6 13.75 6 16 6 C16 5.34 16 4.68 16 4 C17.32 4.33 18.64 4.66 20 5 C17.36 7.31 14.72 9.62 12 12 C12.33 12.99 12.66 13.98 13 15 C14.32 15 15.64 15 17 15 C17.20625 15.9075 17.4125 16.815 17.625 17.75 C19.32190411 21.76086427 21.31223698 22.83544345 25 25 C25 25.33 25 25.66 25 26 C21.51527717 26.42670076 18.9813155 26.64789556 15.9765625 24.6640625 C14.25103253 23.16390788 12.59940232 21.63343216 11 20 C10.67 21.32 10.34 22.64 10 24 C8.35 24 6.7 24 5 24 C5 22.35 5 20.7 5 19 C0.77895001 21.72190685 0.77895001 21.72190685 -3 25 C-5.625 25.125 -5.625 25.125 -8 25 C-3.1 21.05277778 -3.1 21.05277778 -0.75 19.8125 C2.09783851 16.86295298 2.03972944 12.98883616 2 9 C1.67 8.67 1.34 8.34 1 8 C0.95936168 6.33382885 0.957279 4.66611905 1 3 C0.34 2.67 -0.32 2.34 -1 2 C-0.67 1.34 -0.34 0.68 0 0 Z " fill="#E0E0E2" transform="translate(989,33)"/>
<path d="M0 0 C7.51953125 -0.390625 7.51953125 -0.390625 10 0 C11.82421875 2.015625 11.82421875 2.015625 13 4 C13.33 3.01 13.66 2.02 14 1 C15.32 1 16.64 1 18 1 C18 6.28 18 11.56 18 17 C16.68 17 15.36 17 14 17 C13.67 14.69 13.34 12.38 13 10 C12.25042843 13.47147842 12.25042843 13.47147842 12 17 C10.68 17 9.36 17 8 17 C7.67 15.02 7.34 13.04 7 11 C6.01 11 5.02 11 4 11 C4 12.65 4 14.3 4 16 C2.68 16 1.36 16 0 16 C0 10.72 0 5.44 0 0 Z " fill="#93CBD7" transform="translate(525,299)"/>
<path d="M0 0 C0.82638376 2.89234315 1 4.88742431 1 8 C1.99 8 2.98 8 4 8 C4 11.96 4 15.92 4 20 C3.01 20.33 2.02 20.66 1 21 C-0.68538601 22.99665314 -0.68538601 22.99665314 -2 25 C-2.66 24.01 -3.32 23.02 -4 22 C-4.66 22 -5.32 22 -6 22 C-6 20.68 -6 19.36 -6 18 C-6.99 17.67 -7.98 17.34 -9 17 C-9.3125 13.75 -9.3125 13.75 -9 10 C-6.5 7.6875 -6.5 7.6875 -4 6 C-4 5.34 -4 4.68 -4 4 C-7.47548841 4.53977565 -7.47548841 4.53977565 -11 6 C-12.53146378 9.00594421 -12.53146378 9.00594421 -13 12 C-13.66 12 -14.32 12 -15 12 C-14.690625 11.236875 -14.38125 10.47375 -14.0625 9.6875 C-13.32106407 7.81210323 -12.63771783 5.91315348 -12 4 C-11.34 4 -10.68 4 -10 4 C-10 3.34 -10 2.68 -10 2 C-6.49223216 0.39644899 -3.85645121 -0.22036864 0 0 Z " fill="#967A36" transform="translate(153,2)"/>
<path d="M0 0 C0.99 0 1.98 0 3 0 C3.33 3.3 3.66 6.6 4 10 C4.99 10 5.98 10 7 10 C7.33 6.7 7.66 3.4 8 0 C9.95803507 -0.05389087 11.91648909 -0.09274217 13.875 -0.125 C15.51082031 -0.15980469 15.51082031 -0.15980469 17.1796875 -0.1953125 C20 0 20 0 22 2 C22.44921875 4.34765625 22.44921875 4.34765625 22.6875 7.0625 C22.77386719 7.96097656 22.86023438 8.85945313 22.94921875 9.78515625 C22.96597656 10.51605469 22.98273437 11.24695313 23 12 C22 13 22 13 19.71484375 13.09765625 C18.34005859 13.08025391 18.34005859 13.08025391 16.9375 13.0625 C16.01839844 13.05347656 15.09929688 13.04445313 14.15234375 13.03515625 C13.44207031 13.02355469 12.73179687 13.01195312 12 13 C11.67 12.01 11.34 11.02 11 10 C10.62875 10.495 10.2575 10.99 9.875 11.5 C7.20839115 13.63328708 5.32106337 13.35330461 2 13 C0 11 0 11 -0.1953125 8.3984375 C-0.17210937 7.40070313 -0.14890625 6.40296875 -0.125 5.375 C-0.10695313 4.37210937 -0.08890625 3.36921875 -0.0703125 2.3359375 C-0.04710937 1.56507813 -0.02390625 0.79421875 0 0 Z " fill="#7DB9C7" transform="translate(684,343)"/>
<path d="M0 0 C4.62 0 9.24 0 14 0 C14.33 1.65 14.66 3.3 15 5 C16.32 4.67 17.64 4.34 19 4 C19 4.66 19 5.32 19 6 C18.01 6.495 18.01 6.495 17 7 C17.57584432 9.38564077 18.22227595 11.66682784 19 14 C16 14 16 14 14.3125 12.5 C13.879375 12.005 13.44625 11.51 13 11 C13 11.99 13 12.98 13 14 C8.71 14 4.42 14 0 14 C0 9.38 0 4.76 0 0 Z " fill="#42A5BA" transform="translate(524,337)"/>
<path d="M0 0 C0.56203125 0.23460938 1.1240625 0.46921875 1.703125 0.7109375 C0.87167969 1.20013672 0.87167969 1.20013672 0.0234375 1.69921875 C-0.70101562 2.13621094 -1.42546875 2.57320313 -2.171875 3.0234375 C-2.89117187 3.45269531 -3.61046875 3.88195312 -4.3515625 4.32421875 C-6.56533833 5.72846125 -6.56533833 5.72846125 -8.296875 8.7109375 C-8.93322414 16.09258752 -7.42680417 22.51604374 -3.296875 28.7109375 C2.75497947 31.34217857 9.32124433 31.27715363 15.703125 29.7109375 C19.15914969 27.06351477 20.35883644 24.61923403 21.453125 20.4609375 C21.69546875 19.56890625 21.9378125 18.676875 22.1875 17.7578125 C22.35765625 17.08234375 22.5278125 16.406875 22.703125 15.7109375 C22.043125 15.7109375 21.383125 15.7109375 20.703125 15.7109375 C20.373125 16.3709375 20.043125 17.0309375 19.703125 17.7109375 C19.435 16.4528125 19.166875 15.1946875 18.890625 13.8984375 C18.09167905 10.63942778 17.35314635 8.87913678 14.703125 6.7109375 C14.703125 6.0509375 14.703125 5.3909375 14.703125 4.7109375 C13.053125 4.7109375 11.403125 4.7109375 9.703125 4.7109375 C9.703125 3.7209375 9.703125 2.7309375 9.703125 1.7109375 C14.70491339 2.99046476 17.34711348 4.79559073 20.703125 8.7109375 C22.015625 11.0234375 22.015625 11.0234375 22.703125 12.7109375 C22.14583587 9.36720275 21.35138611 6.67780751 19.703125 3.7109375 C23.20421584 4.87796778 23.94297369 5.5259018 25.703125 8.7109375 C26.59028214 15.95605415 24.27609725 23.2914326 21.265625 29.8359375 C19.35893239 32.12396863 18.5965559 32.21308993 15.703125 32.7109375 C0.83256662 33.55674968 0.83256662 33.55674968 -5.296875 30.7109375 C-9.54836668 24.65868869 -11.93866143 17.51365175 -11.9140625 10.109375 C-10.83984751 5.93489395 -7.84198058 3.76411579 -4.65625 1.046875 C-2.296875 -0.2890625 -2.296875 -0.2890625 0 0 Z " fill="#534B25" transform="translate(145.296875,0.2890625)"/>
<path d="M0 0 C1.60875 -0.04125 3.2175 -0.0825 4.875 -0.125 C5.77992188 -0.14820313 6.68484375 -0.17140625 7.6171875 -0.1953125 C10 0 10 0 12 2 C11.71325582 4.00720923 11.38133299 6.0085944 11 8 C11.33 8.33 11.66 8.66 12 9 C12.1875 11.4375 12.1875 11.4375 12 14 C10 16 10 16 7.6171875 16.1953125 C6.71226562 16.17210937 5.80734375 16.14890625 4.875 16.125 C3.26625 16.08375 1.6575 16.0425 0 16 C0 10.72 0 5.44 0 0 Z " fill="#B8DBE2" transform="translate(625,303)"/>
<path d="M0 0 C0 0.66 0 1.32 0 2 C1.98 2 3.96 2 6 2 C6 1.34 6 0.68 6 0 C6.66 0 7.32 0 8 0 C8 0.66 8 1.32 8 2 C9.794375 1.690625 9.794375 1.690625 11.625 1.375 C15.5576018 0.86418162 18.3121243 1.43265283 22 3 C22 4.98 22 6.96 22 9 C19.36 9 16.72 9 14 9 C14 8.34 14 7.68 14 7 C13.34 7 12.68 7 12 7 C11.67 7.66 11.34 8.32 11 9 C11 7.35 11 5.7 11 4 C10.01 4 9.02 4 8 4 C8 5.32 8 6.64 8 8 C6.8125 9.8125 6.8125 9.8125 5 11 C2.375 10.8125 2.375 10.8125 0 10 C-0.33 9.34 -0.66 8.68 -1 8 C-1.66 8 -2.32 8 -3 8 C-3 6.35 -3 4.7 -3 3 C-5.51083114 4.25541557 -5.87125446 5.50063488 -7 8 C-7 6.02 -7 4.04 -7 2 C-4.35261084 0.5393715 -3.10551666 0 0 0 Z " fill="#888993" transform="translate(634,744)"/>
<path d="M0 0 C0.66 0 1.32 0 2 0 C2 0.99 2 1.98 2 3 C3.32 3 4.64 3 6 3 C6 2.34 6 1.68 6 1 C6.99 1 7.98 1 9 1 C9 1.66 9 2.32 9 3 C9.66 3 10.32 3 11 3 C11 3.66 11 4.32 11 5 C11.66 5 12.32 5 13 5 C13 4.34 13 3.68 13 3 C15.81256281 2.97315688 18.62487241 2.95323812 21.4375 2.9375 C22.23994141 2.92912109 23.04238281 2.92074219 23.86914062 2.91210938 C25.91295221 2.9034857 27.95683902 2.9477185 30 3 C31 4 31 4 31.0625 7.0625 C31.041875 8.031875 31.02125 9.00125 31 10 C30.34 10 29.68 10 29 10 C29 8.35 29 6.7 29 5 C28.34 5 27.68 5 27 5 C27 6.65 27 8.3 27 10 C26.67 10 26.34 10 26 10 C26 8.35 26 6.7 26 5 C25.34 5 24.68 5 24 5 C24 6.65 24 8.3 24 10 C17.9453125 10.1953125 17.9453125 10.1953125 16 10 C15.34 9.34 14.68 8.68 14 8 C12.3222433 8.27206865 10.65549531 8.61500109 9 9 C7.3337447 9.0370279 5.66598681 9.04759962 4 9 C4 7.35 4 5.7 4 4 C3.34 4 2.68 4 2 4 C2 5.65 2 7.3 2 9 C1.34 9 0.68 9 0 9 C0 6.03 0 3.06 0 0 Z " fill="#71737E" transform="translate(508,739)"/>
<path d="M0 0 C8 0 8 0 10.5 1.125 C12 3 12 3 12.4375 6 C12 9 12 9 10.8125 10.875 C8.43963721 12.34781139 6.74086056 12.22223194 4 12 C4 13.65 4 15.3 4 17 C2.68 17 1.36 17 0 17 C0 11.39 0 5.78 0 0 Z " fill="#A2D2DC" transform="translate(560,300)"/>
<path d="M0 0 C2.64202221 0.4518549 4.13172359 1.3715417 5.94140625 3.33203125 C5.94140625 3.99203125 5.94140625 4.65203125 5.94140625 5.33203125 C2.64140625 5.00203125 -0.65859375 4.67203125 -4.05859375 4.33203125 C-4.05859375 6.64203125 -4.05859375 8.95203125 -4.05859375 11.33203125 C-2.40859375 11.66203125 -0.75859375 11.99203125 0.94140625 12.33203125 C1.27140625 11.67203125 1.60140625 11.01203125 1.94140625 10.33203125 C0.95140625 10.33203125 -0.03859375 10.33203125 -1.05859375 10.33203125 C-1.05859375 9.34203125 -1.05859375 8.35203125 -1.05859375 7.33203125 C1.25140625 7.33203125 3.56140625 7.33203125 5.94140625 7.33203125 C6.29571019 10.52076674 6.20093874 11.94792316 4.37890625 14.64453125 C0.9914942 16.98966267 -1.02558303 16.98019369 -5.05859375 16.33203125 C-8.29500409 13.59353019 -8.97906649 11.97961035 -9.49609375 7.76953125 C-8.67025495 1.28079782 -6.69977857 -0.33313816 0 0 Z " fill="#CEE7EC" transform="translate(596.05859375,301.66796875)"/>
<path d="M0 0 C1.32 0.33 2.64 0.66 4 1 C4 1.66 4 2.32 4 3 C4.7425 3 5.485 3 6.25 3 C8.5 3 10.75 3 13 3 C13 4.32 13 5.64 13 7 C11.68 6.67 10.36 6.34 9 6 C8.01 7.485 8.01 7.485 7 9 C10.63 9 14.26 9 18 9 C18.495 10.485 18.495 10.485 19 12 C8.11 12 -2.78 12 -14 12 C-14 11.67 -14 11.34 -14 11 C-9.38 11 -4.76 11 0 11 C0 7.37 0 3.74 0 0 Z " fill="#222435" transform="translate(1029,40)"/>
<path d="M0 0 C1.32 0 2.64 0 4 0 C4 4.29 4 8.58 4 13 C5.65 12.67 7.3 12.34 9 12 C9.33 8.04 9.66 4.08 10 0 C11.32 0 12.64 0 14 0 C14.10841951 1.91541138 14.18578079 3.83259773 14.25 5.75 C14.29640625 6.81734375 14.3428125 7.8846875 14.390625 8.984375 C14 12 14 12 12.20703125 14.36328125 C9.0394632 16.71232729 6.84034114 16.48877069 3 16 C1.296875 14.890625 1.296875 14.890625 0 13 C-0.29296875 9.86328125 -0.29296875 9.86328125 -0.1875 6.3125 C-0.16042969 5.13300781 -0.13335938 3.95351563 -0.10546875 2.73828125 C-0.07066406 1.83464844 -0.03585937 0.93101562 0 0 Z " fill="#C8E3E9" transform="translate(609,302)"/>
<path d="M0 0 C0 2.31 0 4.62 0 7 C-0.33 5.68 -0.66 4.36 -1 3 C-1.99 3 -2.98 3 -4 3 C-3.34 4.65 -2.68 6.3 -2 8 C-3.45922693 7.88590407 -4.91740598 7.75834456 -6.375 7.625 C-7.59316406 7.52058594 -7.59316406 7.52058594 -8.8359375 7.4140625 C-11 7 -11 7 -13 5 C-13.33 5.66 -13.66 6.32 -14 7 C-14.66 7 -15.32 7 -16 7 C-16.33 5.35 -16.66 3.7 -17 2 C-17.99 2 -18.98 2 -20 2 C-20 3.65 -20 5.3 -20 7 C-22.31 7 -24.62 7 -27 7 C-27.38218767 5.34385343 -27.71395102 3.67542976 -28 2 C-27 1 -27 1 -24.49609375 0.90234375 C-22.98208984 0.91974609 -22.98208984 0.91974609 -21.4375 0.9375 C-20.42558594 0.94652344 -19.41367187 0.95554687 -18.37109375 0.96484375 C-17.19740234 0.98224609 -17.19740234 0.98224609 -16 1 C-16 1.99 -16 2.98 -16 4 C-15.34 4 -14.68 4 -14 4 C-14 3.01 -14 2.02 -14 1 C-10.66666667 1 -7.33333333 1 -4 1 C-1 0 -1 0 0 0 Z " fill="#9C9CA4" transform="translate(704,747)"/>
<path d="M0 0 C0.99 0.66 1.98 1.32 3 2 C3 2.99 3 3.98 3 5 C0.33333333 4.33333333 -2.33333333 3.66666667 -5 3 C-4.67 3.99 -4.34 4.98 -4 6 C-0.49705129 7.71567661 -0.49705129 7.71567661 3 9 C3.1875 11.375 3.1875 11.375 3 14 C-0.66865241 16.44576827 -2.67200343 16.23607254 -7 16 C-7.66 15.67 -8.32 15.34 -9 15 C-9 14.01 -9 13.02 -9 12 C-6.36 12.33 -3.72 12.66 -1 13 C-1 12.01 -1 11.02 -1 10 C-2.134375 9.690625 -3.26875 9.38125 -4.4375 9.0625 C-8 8 -8 8 -9 7 C-9.25 4.5625 -9.25 4.5625 -9 2 C-5.53001271 -0.31332486 -4.07490752 -0.33957563 0 0 Z " fill="#D2E9EE" transform="translate(555,300)"/>
<path d="M0 0 C0 3.63 0 7.26 0 11 C-3.63 11 -7.26 11 -11 11 C-11.33 10.34 -11.66 9.68 -12 9 C-10.35 8.67 -8.7 8.34 -7 8 C-7 7.34 -7 6.68 -7 6 C-9.31 6 -11.62 6 -14 6 C-13.34 4.68 -12.68 3.36 -12 2 C-10.6078125 2.061875 -10.6078125 2.061875 -9.1875 2.125 C-5.35552496 1.97472647 -3.80827584 0 0 0 Z " fill="#2D2F3F" transform="translate(1029,40)"/>
<path d="M0 0 C-1 3 -1 3 -3.0625 4.25 C-5.35476202 5.93321118 -5.35476202 5.93321118 -5.375 9.25 C-4.99626746 13.03732535 -4.07099235 16.35862601 -3 20 C-3.33 20.66 -3.66 21.32 -4 22 C-8.875 18.25 -8.875 18.25 -10 16 C-10.04022391 13.6670134 -10.04320247 11.33293334 -10 9 C-10.99 9 -11.98 9 -13 9 C-12.67 8.34 -12.34 7.68 -12 7 C-11.34 7.33 -10.68 7.66 -10 8 C-9.773125 7.071875 -9.54625 6.14375 -9.3125 5.1875 C-8 2 -8 2 -5.5625 0.0625 C-3 -1 -3 -1 0 0 Z " fill="#3F3663" transform="translate(150,6)"/>
<path d="M0 0 C3.3 0 6.6 0 10 0 C10 0.99 10 1.98 10 3 C7.69 3 5.38 3 3 3 C3 4.32 3 5.64 3 7 C4.98 7 6.96 7 9 7 C9 7.66 9 8.32 9 9 C7.02 9 5.04 9 3 9 C3 10.32 3 11.64 3 13 C5.31 13 7.62 13 10 13 C10 13.99 10 14.98 10 16 C6.7 16 3.4 16 0 16 C0 10.72 0 5.44 0 0 Z " fill="#E6F2F5" transform="translate(575,301)"/>
<path d="M0 0 C0.763125 0.20625 1.52625 0.4125 2.3125 0.625 C2.3125 1.285 2.3125 1.945 2.3125 2.625 C3.116875 2.604375 3.92125 2.58375 4.75 2.5625 C7.3125 2.625 7.3125 2.625 8.3125 3.625 C8.35313832 5.29117115 8.355221 6.95888095 8.3125 8.625 C6.35446493 8.67889087 4.39601091 8.71774217 2.4375 8.75 C1.34695313 8.77320313 0.25640625 8.79640625 -0.8671875 8.8203125 C-3.6875 8.625 -3.6875 8.625 -5.6875 6.625 C-6 4.125 -6 4.125 -5.6875 1.625 C-2.6875 -0.375 -2.6875 -0.375 0 0 Z " fill="#5ABACD" transform="translate(373.6875,367.375)"/>
<path d="M0 0 C6.625 -0.25 6.625 -0.25 10 2 C10.3125 4.5 10.3125 4.5 10 7 C8 9 8 9 5.375 9.125 C4.59125 9.08375 3.8075 9.0425 3 9 C3 10.32 3 11.64 3 13 C2.01 13 1.02 13 0 13 C0 8.71 0 4.42 0 0 Z " fill="#6EB6C6" transform="translate(608,340)"/>
<path d="M0 0 C0 0.66 0 1.32 0 2 C0.9075 2.226875 1.815 2.45375 2.75 2.6875 C6.55860907 4.22559213 7.92108323 5.48183317 10 9 C10.25 12.3125 10.25 12.3125 10 15 C8.5 13 8.5 13 7 11 C6.443125 10.29875 5.88625 9.5975 5.3125 8.875 C4 7 4 7 4 5 C3.37351563 4.79503906 2.74703125 4.59007812 2.1015625 4.37890625 C1.28429687 4.10949219 0.46703125 3.84007812 -0.375 3.5625 C-1.18710938 3.29566406 -1.99921875 3.02882812 -2.8359375 2.75390625 C-5 2 -5 2 -7 1 C-7.33 1.66 -7.66 2.32 -8 3 C-10.64860427 3.59355614 -13.29197322 3.74209269 -16 4 C-16 4.66 -16 5.32 -16 6 C-16.66 6 -17.32 6 -18 6 C-18.103125 6.598125 -18.20625 7.19625 -18.3125 7.8125 C-19.08876455 10.28243264 -20.07088921 11.32251235 -22 13 C-22.8125 11.3125 -22.8125 11.3125 -23 9 C-20.9375 6.5 -20.9375 6.5 -18 4 C-17.154375 3.236875 -16.30875 2.47375 -15.4375 1.6875 C-10.36426496 -0.8029972 -5.55310139 -0.32348163 0 0 Z " fill="#1E1B0D" transform="translate(159,0)"/>
<path d="M0 0 C2.05078125 0.03255208 4.1015625 0.06510417 6.15234375 0.09765625 C6.20629853 1.72229467 6.2451157 3.34744166 6.27734375 4.97265625 C6.30054688 5.87757813 6.32375 6.7825 6.34765625 7.71484375 C6.15234375 10.09765625 6.15234375 10.09765625 4.15234375 12.09765625 C1.02734375 12.22265625 1.02734375 12.22265625 -1.84765625 12.09765625 C-2.17765625 11.43765625 -2.50765625 10.77765625 -2.84765625 10.09765625 C-1.19765625 10.09765625 0.45234375 10.09765625 2.15234375 10.09765625 C1.16234375 9.76765625 0.17234375 9.43765625 -0.84765625 9.09765625 C-1.50765625 8.76765625 -2.16765625 8.43765625 -2.84765625 8.09765625 C-2.89007348 5.7647085 -2.88858562 3.43063058 -2.84765625 1.09765625 C-1.84765625 0.09765625 -1.84765625 0.09765625 0 0 Z " fill="#D7EAEE" transform="translate(632.84765625,344.90234375)"/>
<path d="M0 0 C0.66 0 1.32 0 2 0 C2 2.31 2 4.62 2 7 C2.99 7 3.98 7 5 7 C5.33 5.68 5.66 4.36 6 3 C6.66 3.33 7.32 3.66 8 4 C8 3.67 8 3.34 8 3 C9.65 3 11.3 3 13 3 C13 4.98 13 6.96 13 9 C8.25 9.125 8.25 9.125 6 8 C4.62657169 7.9310528 3.24997898 7.91532292 1.875 7.9375 C0.59625 7.958125 -0.6825 7.97875 -2 8 C-2 6.35 -2 4.7 -2 3 C-2.66 3 -3.32 3 -4 3 C-4 4.65 -4 6.3 -4 8 C-4.66 8 -5.32 8 -6 8 C-6 6.35 -6 4.7 -6 3 C-6.66 3 -7.32 3 -8 3 C-8 4.65 -8 6.3 -8 8 C-8.33 8 -8.66 8 -9 8 C-9 6.02 -9 4.04 -9 2 C-6.03 2 -3.06 2 0 2 C0 1.34 0 0.68 0 0 Z " fill="#88DDEC" transform="translate(497,417)"/>
<path d="M0 0 C1.60875 -0.061875 3.2175 -0.12375 4.875 -0.1875 C5.77992188 -0.22230469 6.68484375 -0.25710938 7.6171875 -0.29296875 C8.79667969 -0.14794922 8.79667969 -0.14794922 10 0 C12.29013653 3.4352048 12.17842973 4.985331 12 9 C9 7 9 7 8 4 C6.68 3.67 5.36 3.34 4 3 C3.67 7.29 3.34 11.58 3 16 C2.01 16 1.02 16 0 16 C0 10.72 0 5.44 0 0 Z " fill="#BBDFE6" transform="translate(525,299)"/>
<path d="M0 0 C1.45792884 -0.05399736 2.91642712 -0.09279177 4.375 -0.125 C5.18710937 -0.14820313 5.99921875 -0.17140625 6.8359375 -0.1953125 C9 0 9 0 11 2 C10.69690596 6.09176955 10.12300942 9.46165096 8 13 C6.35 13 4.7 13 3 13 C3 9.04 3 5.08 3 1 C2.01 0.67 1.02 0.34 0 0 Z " fill="#D7EAEE" transform="translate(626,303)"/>
<path d="M0 0 C0.66 0 1.32 0 2 0 C2 3.96 2 7.92 2 12 C-4.15234375 12.09765625 -4.15234375 12.09765625 -6 12 C-7 11 -7 11 -7.125 7.5 C-7 4 -7 4 -6 3 C-4.00041636 2.95919217 -1.99954746 2.95745644 0 3 C0 2.01 0 1.02 0 0 Z " fill="#DAECF0" transform="translate(582,340)"/>
<path d="M0 0 C5.00890086 0.61512818 10.00632136 1.2717552 15 2 C15 3.98 15 5.96 15 8 C14.67 8 14.34 8 14 8 C14 6.35 14 4.7 14 3 C13.01 3 12.02 3 11 3 C11 4.65 11 6.3 11 8 C7.37 8 3.74 8 0 8 C0 5.36 0 2.72 0 0 Z " fill="#787984" transform="translate(576,743)"/>
<path d="M0 0 C6.15234375 -0.09765625 6.15234375 -0.09765625 8 0 C9 1 9 1 9.125 3.9375 C9 7 9 7 8 9 C6.35 9 4.7 9 3 9 C2.67 9.99 2.34 10.98 2 12 C1.34 12 0.68 12 0 12 C0 8.04 0 4.08 0 0 Z " fill="#D6EBEF" transform="translate(554,342)"/>
<path d="M0 0 C0.66 0 1.32 0 2 0 C2.66 0.99 3.32 1.98 4 3 C4.33 2.34 4.66 1.68 5 1 C5.99 1 6.98 1 8 1 C8 2.32 8 3.64 8 5 C8.66 5 9.32 5 10 5 C10 3.68 10 2.36 10 1 C10.99 1 11.98 1 13 1 C12.34 3.97 11.68 6.94 11 10 C10.01 10 9.02 10 8 10 C7.34 8.68 6.68 7.36 6 6 C5.67 7.32 5.34 8.64 5 10 C3.68 9.67 2.36 9.34 1 9 C0.67 6.03 0.34 3.06 0 0 Z " fill="#D7EAEE" transform="translate(651,345)"/>
<path d="M0 0 C2.97 0 5.94 0 9 0 C9 0.99 9 1.98 9 3 C7.02 3 5.04 3 3 3 C3 3.99 3 4.98 3 6 C4.65 6 6.3 6 8 6 C8 6.66 8 7.32 8 8 C6.35 8 4.7 8 3 8 C3 8.99 3 9.98 3 11 C4.65 11 6.3 11 8 11 C8 11.66 8 12.32 8 13 C5.36 13 2.72 13 0 13 C0 8.71 0 4.42 0 0 Z " fill="#C4E3EA" transform="translate(524,337)"/>
<path d="M0 0 C3 0.25 3 0.25 5 2.25 C5.3125 4.75 5.3125 4.75 5 7.25 C2 9.25 2 9.25 -1.1875 8.875 C-2.5796875 8.565625 -2.5796875 8.565625 -4 8.25 C-4.625 5.375 -4.625 5.375 -5 2.25 C-3 0.25 -3 0.25 0 0 Z " fill="#696B77" transform="translate(428,736.75)"/>
<path d="M0 0 C2.64 0 5.28 0 8 0 C8 4.29 8 8.58 8 13 C7.34 13 6.68 13 6 13 C6 12.34 6 11.68 6 11 C4.68 11.33 3.36 11.66 2 12 C1.92652344 11.04287109 1.92652344 11.04287109 1.8515625 10.06640625 C1.77679687 9.24011719 1.70203125 8.41382813 1.625 7.5625 C1.55539062 6.73878906 1.48578125 5.91507813 1.4140625 5.06640625 C1.27742187 4.38449219 1.14078125 3.70257813 1 3 C0.34 2.67 -0.32 2.34 -1 2 C-0.67 1.34 -0.34 0.68 0 0 Z " fill="#52525A" transform="translate(989,33)"/>
<path d="M0 0 C1 1 1 1 1.09765625 2.84765625 C1.04882812 5.92382812 1.04882812 5.92382812 1 9 C-1.64 9 -4.28 9 -7 9 C-7.38218767 7.34385343 -7.71395102 5.67542976 -8 4 C-7 3 -7 3 -4.4375 2.9375 C-3.2309375 2.9684375 -3.2309375 2.9684375 -2 3 C-2 2.34 -2 1.68 -2 1 C-3.65 1.33 -5.3 1.66 -7 2 C-7 1.34 -7 0.68 -7 0 C-4.31633121 -1.3418344 -2.84719317 -0.73004953 0 0 Z " fill="#BFE1E8" transform="translate(511,341)"/>
<path d="M0 0 C6.625 -0.25 6.625 -0.25 10 2 C10 3.32 10 4.64 10 6 C9.34 6 8.68 6 8 6 C8 5.01 8 4.02 8 3 C5.03 2.505 5.03 2.505 2 2 C2 3.98 2 5.96 2 8 C3.65 7.67 5.3 7.34 7 7 C7.99 8.98 8.98 10.96 10 13 C8.68 12.67 7.36 12.34 6 12 C6 11.01 6 10.02 6 9 C5.01 9 4.02 9 3 9 C3 10.32 3 11.64 3 13 C2.01 13 1.02 13 0 13 C0 8.71 0 4.42 0 0 Z " fill="#BAE0E8" transform="translate(453,335)"/>
<path d="M0 0 C0.66 0 1.32 0 2 0 C2 0.99 2 1.98 2 3 C3.32 3 4.64 3 6 3 C6 2.34 6 1.68 6 1 C6.99 1 7.98 1 9 1 C9 1.66 9 2.32 9 3 C9.66 3 10.32 3 11 3 C13 6 13 6 13 9 C10 9 7 9 4 9 C4 7.35 4 5.7 4 4 C3.34 4 2.68 4 2 4 C2 5.65 2 7.3 2 9 C1.34 9 0.68 9 0 9 C0 6.03 0 3.06 0 0 Z " fill="#676975" transform="translate(508,739)"/>
<path d="M0 0 C0.99 0 1.98 0 3 0 C3.33 3.3 3.66 6.6 4 10 C4.99 10 5.98 10 7 10 C7.33 7.03 7.66 4.06 8 1 C8.66 1 9.32 1 10 1 C10.05395478 2.62463842 10.09277195 4.24978541 10.125 5.875 C10.14820313 6.77992188 10.17140625 7.68484375 10.1953125 8.6171875 C10 11 10 11 8 13 C5 13.25 5 13.25 2 13 C0 11 0 11 -0.1953125 8.3984375 C-0.17210937 7.40070313 -0.14890625 6.40296875 -0.125 5.375 C-0.10695313 4.37210937 -0.08890625 3.36921875 -0.0703125 2.3359375 C-0.04710937 1.56507813 -0.02390625 0.79421875 0 0 Z " fill="#D6E9ED" transform="translate(684,343)"/>
<path d="M0 0 C0.33 1.32 0.66 2.64 1 4 C0.34 4 -0.32 4 -1 4 C-1 4.66 -1 5.32 -1 6 C-0.34 6.33 0.32 6.66 1 7 C0.01 7.33 -0.98 7.66 -2 8 C-2 8.66 -2 9.32 -2 10 C-1.34 10 -0.68 10 0 10 C-0.33 12.31 -0.66 14.62 -1 17 C-1.66 17 -2.32 17 -3 17 C-3 15.68 -3 14.36 -3 13 C-3.99 12.67 -4.98 12.34 -6 12 C-6.375 8.8125 -6.375 8.8125 -6 5 C-4.18811972 2.8596502 -2.34198833 1.61011698 0 0 Z " fill="#978B5B" transform="translate(150,7)"/>
<path d="M0 0 C11.375 0 11.375 0 15 1 C15 2.65 15 4.3 15 6 C12.10765685 6.82638376 10.11257569 7 7 7 C7 5.35 7 3.7 7 2 C6.34 2 5.68 2 5 2 C4.67 3.32 4.34 4.64 4 6 C3.34 4.68 2.68 3.36 2 2 C1.34 3.32 0.68 4.64 0 6 C0 4.02 0 2.04 0 0 Z " fill="#7FC4D3" transform="translate(468,373)"/>
<path d="M0 0 C2.5625 0.1875 2.5625 0.1875 4.5625 2.1875 C4.5625 3.5075 4.5625 4.8275 4.5625 6.1875 C2.5825 6.1875 0.6025 6.1875 -1.4375 6.1875 C-1.4375 6.8475 -1.4375 7.5075 -1.4375 8.1875 C0.5425 7.8575 2.5225 7.5275 4.5625 7.1875 C3.5725 8.6725 3.5725 8.6725 2.5625 10.1875 C0.0625 10.5625 0.0625 10.5625 -2.4375 10.1875 C-4.4375 7.1875 -4.4375 7.1875 -4.125 4.0625 C-3.21262777 0.24712521 -3.21262777 0.24712521 0 0 Z " fill="#C4E1E7" transform="translate(623.4375,343.8125)"/>
<path d="M0 0 C0.66 0 1.32 0 2 0 C2 1.98 2 3.96 2 6 C2.66 6 3.32 6 4 6 C4 6.66 4 7.32 4 8 C4.66 8 5.32 8 6 8 C6 6.68 6 5.36 6 4 C5.34 3.67 4.68 3.34 4 3 C5.32 3 6.64 3 8 3 C8 4.98 8 6.96 8 9 C6.18757948 9.02687279 4.37504767 9.04633715 2.5625 9.0625 C1.55316406 9.07410156 0.54382813 9.08570313 -0.49609375 9.09765625 C-3 9 -3 9 -4 8 C-4.04063832 6.33382885 -4.042721 4.66611905 -4 3 C-2.68 2.67 -1.36 2.34 0 2 C0 1.34 0 0.68 0 0 Z " fill="#7ABCCB" transform="translate(595,375)"/>
<path d="M0 0 C0.99 0 1.98 0 3 0 C3 0.66 3 1.32 3 2 C3.99 2.33 4.98 2.66 6 3 C6 4.98 6 6.96 6 9 C5.67 9 5.34 9 5 9 C5 7.35 5 5.7 5 4 C4.01 4 3.02 4 2 4 C2 5.65 2 7.3 2 9 C-0.31 9 -2.62 9 -5 9 C-5 6.66666667 -5 4.33333333 -5 2 C-3.68 2 -2.36 2 -1 2 C-0.67 1.34 -0.34 0.68 0 0 Z " fill="#6DBFCF" transform="translate(425,369)"/>
<path d="M0 0 C1.99954746 -0.04254356 4.00041636 -0.04080783 6 0 C7 1 7 1 7.09765625 3.06640625 C7.08605469 3.89011719 7.07445312 4.71382813 7.0625 5.5625 C7.05347656 6.38878906 7.04445313 7.21507812 7.03515625 8.06640625 C7.02355469 8.70449219 7.01195312 9.34257812 7 10 C4.36 9.67 1.72 9.34 -1 9 C-1 7.35 -1 5.7 -1 4 C0.65 4 2.3 4 4 4 C4 3.34 4 2.68 4 2 C2.35 2.33 0.7 2.66 -1 3 C-0.67 2.01 -0.34 1.02 0 0 Z " fill="#CCE4EA" transform="translate(642,345)"/>
<path d="M0 0 C0.99 0 1.98 0 3 0 C3.33 1.65 3.66 3.3 4 5 C5.32 4.67 6.64 4.34 8 4 C8 4.66 8 5.32 8 6 C7.01 6.495 7.01 6.495 6 7 C6.57584432 9.38564077 7.22227595 11.66682784 8 14 C5 14 5 14 3.3125 12.5 C2.879375 12.005 2.44625 11.51 2 11 C2 11.66 2 12.32 2 13 C1.34 13 0.68 13 0 13 C0 8.71 0 4.42 0 0 Z " fill="#DDEEF2" transform="translate(535,337)"/>
<path d="M0 0 C3.05448544 0.17967561 4.62545344 0.61085596 7.1875 2.1875 C7.1875 2.8475 7.1875 3.5075 7.1875 4.1875 C4.8775 4.1875 2.5675 4.1875 0.1875 4.1875 C0.1875 5.1775 0.1875 6.1675 0.1875 7.1875 C1.1775 7.1875 2.1675 7.1875 3.1875 7.1875 C2.8575 8.1775 2.5275 9.1675 2.1875 10.1875 C-2.6875 9.3125 -2.6875 9.3125 -3.8125 8.1875 C-3.9375 4.6875 -3.9375 4.6875 -3.8125 1.1875 C-2.8125 0.1875 -2.8125 0.1875 0 0 Z " fill="#1A8DA6" transform="translate(594.8125,304.8125)"/>
<path d="M0 0 C2.375 -0.125 2.375 -0.125 5 0 C7 2 7 2 7 6 C5.35 6.33 3.7 6.66 2 7 C3.65 7 5.3 7 7 7 C6.67 7.99 6.34 8.98 6 10 C4.00045254 10.04254356 1.99958364 10.04080783 0 10 C-1 9 -1 9 -1.125 5.5625 C-1 2 -1 2 0 0 Z " fill="#ACD6DF" transform="translate(566,342)"/>
<path d="M0 0 C3 3 3 3 3.8125 5.5625 C4.83077151 8.33285604 4.83077151 8.33285604 8.125 9.3125 C9.07375 9.539375 10.0225 9.76625 11 10 C11 10.99 11 11.98 11 13 C5.25 13.125 5.25 13.125 3 12 C2.34 13.32 1.68 14.64 1 16 C0.67 16 0.34 16 0 16 C0 10.72 0 5.44 0 0 Z " fill="#2797AF" transform="translate(543,300)"/>
<path d="M0 0 C0.99 0.33 1.98 0.66 3 1 C3 1.99 3 2.98 3 4 C3.721875 3.855625 4.44375 3.71125 5.1875 3.5625 C8.4275699 4.06651087 8.84381711 4.51945956 10.8125 7 C13.51423223 11.23214383 13.70784011 14.04511924 13 19 C11.1875 22.5 11.1875 22.5 9 25 C8.01 25 7.02 25 6 25 C6 24.34 6 23.68 6 23 C6.66 22.484375 7.32 21.96875 8 21.4375 C10.62137724 18.24269649 10.58638863 16.08698294 10.375 12.05078125 C10.14507416 9.87765604 10.14507416 9.87765604 8.5 8.125 C5.04863772 6.57188697 1.57368398 5.25078939 -2 4 C-1.01 3.34 -0.02 2.68 1 2 C0.67 1.34 0.34 0.68 0 0 Z " fill="#3B2F3B" transform="translate(152,1)"/>
<path d="M0 0 C1.98 0 3.96 0 6 0 C6.33 0.99 6.66 1.98 7 3 C9.01508358 3.73323796 9.01508358 3.73323796 11 4 C11 5.65 11 7.3 11 9 C9.35 9.33 7.7 9.66 6 10 C4.875 5.25 4.875 5.25 6 3 C5.34 3 4.68 3 4 3 C4 4.98 4 6.96 4 9 C3.34 9 2.68 9 2 9 C2 6.69 2 4.38 2 2 C1.34 2 0.68 2 0 2 C0 1.34 0 0.68 0 0 Z " fill="#72A3B2" transform="translate(641,421)"/>
<path d="M0 0 C1.67542976 0.28604898 3.34385343 0.61781233 5 1 C5.84454356 4.37817425 6.10844919 6.67465243 5 10 C3.33388095 10.042721 1.66617115 10.04063832 0 10 C-1 9 -1 9 -1.1328125 7.1875 C-1.13023437 6.465625 -1.12765625 5.74375 -1.125 5 C-1.12757813 4.278125 -1.13015625 3.55625 -1.1328125 2.8125 C-1 1 -1 1 0 0 Z " fill="#80818B" transform="translate(437,736)"/>
<path d="M0 0 C0.33 0 0.66 0 1 0 C1 4.29 1 8.58 1 13 C0.01 12.67 -0.98 12.34 -2 12 C-3.1875 9.4375 -3.1875 9.4375 -4 7 C-5.65 7.33 -7.3 7.66 -9 8 C-9 6.02 -9 4.04 -9 2 C-6.03 2.495 -6.03 2.495 -3 3 C-3 3.99 -3 4.98 -3 6 C-2.34 6 -1.68 6 -1 6 C-0.67 4.02 -0.34 2.04 0 0 Z " fill="#86C8D6" transform="translate(464,335)"/>
<path d="M0 0 C0.66 0 1.32 0 2 0 C2.33 0.66 2.66 1.32 3 2 C5.52733235 2.65555119 5.52733235 2.65555119 8 3 C8 4.98 8 6.96 8 9 C6.35 9 4.7 9 3 9 C2.67 9.66 2.34 10.32 2 11 C1.01 11 0.02 11 -1 11 C-0.67 7.37 -0.34 3.74 0 0 Z " fill="#7C7D87" transform="translate(466,738)"/>
<path d="M0 0 C0.33 0 0.66 0 1 0 C1 2.64 1 5.28 1 8 C-2.96 8 -6.92 8 -11 8 C-11 6.02 -11 4.04 -11 2 C-10.67 2 -10.34 2 -10 2 C-10 3.65 -10 5.3 -10 7 C-9.34 6.67 -8.68 6.34 -8 6 C-7.34786708 3.97536745 -7.34786708 3.97536745 -7 2 C-4.69 2 -2.38 2 0 2 C0 1.34 0 0.68 0 0 Z " fill="#7CC6D5" transform="translate(417,369)"/>
<path d="M0 0 C1.66611905 -0.042721 3.33382885 -0.04063832 5 0 C6 1 6 1 6.09765625 2.84765625 C6.04882812 5.92382812 6.04882812 5.92382812 6 9 C3.36 9 0.72 9 -2 9 C-2.33 7.68 -2.66 6.36 -3 5 C0 3 0 3 3 3 C3 2.34 3 1.68 3 1 C2.01 0.67 1.02 0.34 0 0 Z " fill="#AAD8E1" transform="translate(486,340)"/>
<path d="M0 0 C0.99 0.33 1.98 0.66 3 1 C2.67 2.98 2.34 4.96 2 7 C4.44480079 6.81171228 4.44480079 6.81171228 7 6 C8.3169667 4.11629529 8.3169667 4.11629529 9 2 C9.33 1.34 9.66 0.68 10 0 C11 1 11 1 11.1875 3.9375 C11 7 11 7 9 9 C5.375 9.125 5.375 9.125 2 9 C2 10.65 2 12.3 2 14 C1.34 14 0.68 14 0 14 C0 9.38 0 4.76 0 0 Z " fill="#FEFEFE" transform="translate(561,302)"/>
<path d="M0 0 C1.98 0 3.96 0 6 0 C5.01 0.33 4.02 0.66 3 1 C2.67 3.97 2.34 6.94 2 10 C3.65 10 5.3 10 7 10 C7 9.01 7 8.02 7 7 C7.99 7 8.98 7 10 7 C9.67 8.65 9.34 10.3 9 12 C6.03 12 3.06 12 0 12 C0 8.04 0 4.08 0 0 Z " fill="#E2EFF2" transform="translate(697,344)"/>
<path d="M0 0 C0.33 0 0.66 0 1 0 C1 2.64 1 5.28 1 8 C0.236875 7.814375 -0.52625 7.62875 -1.3125 7.4375 C-4.08967375 6.77180827 -4.08967375 6.77180827 -7 8 C-7 6.35 -7 4.7 -7 3 C-7.66 3 -8.32 3 -9 3 C-9 4.65 -9 6.3 -9 8 C-9.66 8 -10.32 8 -11 8 C-11 6.02 -11 4.04 -11 2 C-7.33333333 2 -3.66666667 2 0 2 C0 1.34 0 0.68 0 0 Z " fill="#85BAC7" transform="translate(778,382)"/>
<path d="M0 0 C6.15234375 -0.09765625 6.15234375 -0.09765625 8 0 C9 1 9 1 9.0625 3.5625 C9.041875 4.366875 9.02125 5.17125 9 6 C5.67465243 7.10844919 3.37817425 6.84454356 0 6 C0 4.02 0 2.04 0 0 Z " fill="#7F808A" transform="translate(660,747)"/>
<path d="M0 0 C3.3 0 6.6 0 10 0 C10 1.98 10 3.96 10 6 C8.35 6 6.7 6 5 6 C4.67 5.01 4.34 4.02 4 3 C4 3.99 4 4.98 4 6 C2.35 5.67 0.7 5.34 -1 5 C-0.67 3.35 -0.34 1.7 0 0 Z " fill="#72747F" transform="translate(544,743)"/>
<path d="M0 0 C0.66 0 1.32 0 2 0 C2 2.64 2 5.28 2 8 C0 8 -2 8 -4 8 C-4 7.34 -4 6.68 -4 6 C-4.66 6 -5.32 6 -6 6 C-6 6.66 -6 7.32 -6 8 C-6.66 8 -7.32 8 -8 8 C-8.33 6.02 -8.66 4.04 -9 2 C-6.03 2 -3.06 2 0 2 C0 1.34 0 0.68 0 0 Z " fill="#666774" transform="translate(463,738)"/>
<path d="M0 0 C0.33 1.32 0.66 2.64 1 4 C1.66 4 2.32 4 3 4 C3.33 3.34 3.66 2.68 4 2 C4.33 3.32 4.66 4.64 5 6 C5.66 4.35 6.32 2.7 7 1 C7.33 1.66 7.66 2.32 8 3 C8.99 2.67 9.98 2.34 11 2 C11 4.31 11 6.62 11 9 C4.375 9.125 4.375 9.125 1 8 C-0.35439668 5.29120665 -0.06501451 2.99066732 0 0 Z " fill="#624E24" transform="translate(146,20)"/>
<path d="M0 0 C6.15234375 -0.09765625 6.15234375 -0.09765625 8 0 C9 1 9 1 9.0625 3.5625 C9.041875 4.366875 9.02125 5.17125 9 6 C4.545 6.495 4.545 6.495 0 7 C0 4.69 0 2.38 0 0 Z " fill="#63BDCF" transform="translate(383,370)"/>
<path d="M0 0 C1.99954746 -0.04254356 4.00041636 -0.04080783 6 0 C7 1 7 1 7.09765625 2.84765625 C7.04882812 5.92382812 7.04882812 5.92382812 7 9 C4.69 9 2.38 9 0 9 C-0.5625 7.0625 -0.5625 7.0625 -1 5 C0 4 0 4 2.5625 3.9375 C3.7690625 3.9684375 3.7690625 3.9684375 5 4 C5 3.34 5 2.68 5 2 C3.35 2 1.7 2 0 2 C0 1.34 0 0.68 0 0 Z " fill="#E2EFF3" transform="translate(666,346)"/>
<path d="M0 0 C0.66 0 1.32 0 2 0 C2.66 1.32 3.32 2.64 4 4 C4.33 2.68 4.66 1.36 5 0 C5.99 0 6.98 0 8 0 C7.33501617 4.38889325 5.81242323 7.9811485 4 12 C2.68 12 1.36 12 0 12 C0 8.04 0 4.08 0 0 Z " fill="#D0E9EE" transform="translate(494,340)"/>
<path d="M0 0 C3.63 0 7.26 0 11 0 C11 1.98 11 3.96 11 6 C9.35 6 7.7 6 6 6 C5.67 4.68 5.34 3.36 5 2 C4.01 3.98 3.02 5.96 2 8 C1.34 7.67 0.68 7.34 0 7 C0 4.69 0 2.38 0 0 Z " fill="#888993" transform="translate(475,741)"/>
<path d="M0 0 C6.15234375 -0.09765625 6.15234375 -0.09765625 8 0 C9 1 9 1 9.0625 3.5625 C9.041875 4.366875 9.02125 5.17125 9 6 C8.071875 5.979375 7.14375 5.95875 6.1875 5.9375 C2.97713989 5.84230396 2.97713989 5.84230396 0 7 C0 4.69 0 2.38 0 0 Z " fill="#FFA76A" transform="translate(581,470)"/>
<path d="M0 0 C2.64 0 5.28 0 8 0 C8 0.33 8 0.66 8 1 C6.2984375 1.433125 6.2984375 1.433125 4.5625 1.875 C3.386875 2.24625 2.21125 2.6175 1 3 C0.67 3.66 0.34 4.32 0 5 C1.32 5 2.64 5 4 5 C4.33 4.34 4.66 3.68 5 3 C5 3.66 5 4.32 5 5 C5.66 5 6.32 5 7 5 C7 5.66 7 6.32 7 7 C6.34 7 5.68 7 5 7 C4.67 7.66 4.34 8.32 4 9 C3.34 8.67 2.68 8.34 2 8 C0.62657169 7.9310528 -0.75002102 7.91532292 -2.125 7.9375 C-4.043125 7.9684375 -4.043125 7.9684375 -6 8 C-6.33 7.01 -6.66 6.02 -7 5 C-6.360625 4.87625 -5.72125 4.7525 -5.0625 4.625 C-4.381875 4.41875 -3.70125 4.2125 -3 4 C-2.67 3.34 -2.34 2.68 -2 2 C-1.34 2 -0.68 2 0 2 C0 1.34 0 0.68 0 0 Z " fill="#242638" transform="translate(1015,41)"/>
<path d="M0 0 C5.75 -0.125 5.75 -0.125 8 1 C8 2.32 8 3.64 8 5 C8.99 5 9.98 5 11 5 C11.33 3.68 11.66 2.36 12 1 C12 3.64 12 6.28 12 9 C9.5625 8.625 9.5625 8.625 7 8 C6.67 7.34 6.34 6.68 6 6 C5.34 6 4.68 6 4 6 C4 4.35 4 2.7 4 1 C1.48916886 2.25541557 1.12874554 3.50063488 0 6 C0 4.02 0 2.04 0 0 Z " fill="#96979F" transform="translate(627,746)"/>
<path d="M0 0 C0.33 0 0.66 0 1 0 C1 4.62 1 9.24 1 14 C-1 11 -1 11 -1.1875 9 C-1.92604989 6.54575674 -1.92604989 6.54575674 -5.5625 5.25 C-6.696875 4.8375 -7.83125 4.425 -9 4 C-9 3.01 -9 2.02 -9 1 C-6.36 1.33 -3.72 1.66 -1 2 C-0.67 1.34 -0.34 0.68 0 0 Z " fill="#178FA8" transform="translate(559,302)"/>
<path d="M0 0 C1.9375 0.8125 1.9375 0.8125 4 2 C5 5 5 5 4.0625 7.1875 C3.5365625 8.0846875 3.5365625 8.0846875 3 9 C1.35 9 -0.3 9 -2 9 C-2.6875 6.1875 -2.6875 6.1875 -3 3 C-1.5625 1.125 -1.5625 1.125 0 0 Z " fill="#757681" transform="translate(996,48)"/>
<path d="M0 0 C0.33 0 0.66 0 1 0 C1 2.97 1 5.94 1 9 C-1.31 8.67 -3.62 8.34 -6 8 C-7.125 4.25 -7.125 4.25 -6 2 C-4.35 2 -2.7 2 -1 2 C-0.67 1.34 -0.34 0.68 0 0 Z " fill="#7EBCCA" transform="translate(650,377)"/>
<path d="M0 0 C1.98 0 3.96 0 6 0 C6.33 0.99 6.66 1.98 7 3 C5.35 2.67 3.7 2.34 2 2 C2 2.66 2 3.32 2 4 C3.65 4.33 5.3 4.66 7 5 C6.67 6.65 6.34 8.3 6 10 C4.35 10 2.7 10 1 10 C0.67 9.01 0.34 8.02 0 7 C1.32 7.33 2.64 7.66 4 8 C4 7.34 4 6.68 4 6 C2.68 5.67 1.36 5.34 0 5 C0 3.35 0 1.7 0 0 Z " fill="#C5E2E8" transform="translate(591,343)"/>
<path d="M0 0 C2.64202221 0.4518549 4.13172359 1.3715417 5.94140625 3.33203125 C5.94140625 3.99203125 5.94140625 4.65203125 5.94140625 5.33203125 C5.25433594 5.24824219 4.56726563 5.16445313 3.859375 5.078125 C2.95832031 4.97628906 2.05726563 4.87445313 1.12890625 4.76953125 C0.23558594 4.66511719 -0.65773438 4.56070312 -1.578125 4.453125 C-4.19234947 4.17544416 -4.19234947 4.17544416 -7.05859375 5.33203125 C-7.38859375 7.31203125 -7.71859375 9.29203125 -8.05859375 11.33203125 C-8.38859375 11.33203125 -8.71859375 11.33203125 -9.05859375 11.33203125 C-9.25826287 7.87109991 -9.38620388 5.13058095 -8.05859375 1.89453125 C-5.45108604 -0.14258415 -3.24747298 -0.16147656 0 0 Z " fill="#B1D8E1" transform="translate(596.05859375,301.66796875)"/>
<path d="M0 0 C3.65316671 1.24976756 4.78065836 1.67098753 7 5 C7.375 8 7.375 8 7 11 C5 12.875 5 12.875 3 14 C2.07155611 9.66726186 2.07155611 6.33273814 3 2 C2.01 2 1.02 2 0 2 C0 1.34 0 0.68 0 0 Z " fill="#67688B" transform="translate(154,8)"/>
<path d="M0 0 C2.31 0.33 4.62 0.66 7 1 C7.68707555 3.49064888 8 5.37886292 8 8 C6.02 8 4.04 8 2 8 C1.855625 7.236875 1.71125 6.47375 1.5625 5.6875 C1.0367406 2.91827092 1.0367406 2.91827092 0 0 Z " fill="#3B3C4C" transform="translate(648,745)"/>
<path d="M0 0 C1.98 0 3.96 0 6 0 C6.33 0.66 6.66 1.32 7 2 C5.35 1.67 3.7 1.34 2 1 C2 1.66 2 2.32 2 3 C4.475 3.99 4.475 3.99 7 5 C6.67 6.32 6.34 7.64 6 9 C4.02 9 2.04 9 0 9 C-0.33 8.01 -0.66 7.02 -1 6 C0.65 6 2.3 6 4 6 C1.525 5.01 1.525 5.01 -1 4 C-0.67 2.68 -0.34 1.36 0 0 Z " fill="#DDEFF2" transform="translate(545,342)"/>
<path d="M0 0 C0.99 0 1.98 0 3 0 C3 1.98 3 3.96 3 6 C4.32 6 5.64 6 7 6 C7 5.01 7 4.02 7 3 C7.66 3 8.32 3 9 3 C8.125 6.875 8.125 6.875 7 8 C5.33382885 8.04063832 3.66611905 8.042721 2 8 C2 9.32 2 10.64 2 12 C1.34 12 0.68 12 0 12 C0 8.04 0 4.08 0 0 Z " fill="#DFEFF2" transform="translate(609,341)"/>
<path d="M0 0 C1.0725 0.165 2.145 0.33 3.25 0.5 C7.03028752 1.08810915 7.03028752 1.08810915 11 1 C11 2.32 11 3.64 11 5 C10.4225 4.79375 9.845 4.5875 9.25 4.375 C6.48032433 3.91338739 5.35438733 4.57055055 3 6 C2.67 5.67 2.34 5.34 2 5 C1.01 5 0.02 5 -1 5 C-0.67 3.35 -0.34 1.7 0 0 Z " fill="#868790" transform="translate(1031,42)"/>
<path d="M0 0 C1.98 0 3.96 0 6 0 C6.66 1.65 7.32 3.3 8 5 C8.66 5 9.32 5 10 5 C10 3.68 10 2.36 10 1 C9.34 0.67 8.68 0.34 8 0 C9.32 0 10.64 0 12 0 C12 1.98 12 3.96 12 6 C9.36 6 6.72 6 4 6 C4 4.35 4 2.7 4 1 C3.34 1 2.68 1 2 1 C2 2.65 2 4.3 2 6 C1.34 6 0.68 6 0 6 C0 4.02 0 2.04 0 0 Z " fill="#90CBD8" transform="translate(484,374)"/>
<path d="M0 0 C0.33 0.99 0.66 1.98 1 3 C-1.5972728 7.77898194 -4.58846509 10.93893496 -9 14 C-11.875 14.3125 -11.875 14.3125 -14 14 C-9.14285714 10.08730159 -9.14285714 10.08730159 -6.75 8.625 C-4.3025119 6.35233247 -4.42114314 4.22876411 -4 1 C-2 0 -2 0 0 0 Z " fill="#B8B8BD" transform="translate(995,44)"/>
<path d="M0 0 C1.65 0 3.3 0 5 0 C5 2.97 5 5.94 5 9 C3.35 9 1.7 9 0 9 C0 6.03 0 3.06 0 0 Z " fill="#6B6D78" transform="translate(619,743)"/>
<path d="M0 0 C0.99 0 1.98 0 3 0 C3 1.98 3 3.96 3 6 C4.32 6.33 5.64 6.66 7 7 C5.68 7.33 4.36 7.66 3 8 C2.67 9.65 2.34 11.3 2 13 C3.65 13 5.3 13 7 13 C7 13.33 7 13.66 7 14 C4.69 14 2.38 14 0 14 C0 9.38 0 4.76 0 0 Z " fill="#F7FBFB" transform="translate(626,304)"/>
<path d="M0 0 C3.69367933 0.72267639 7.11293697 0.62626378 10.875 0.5625 C11.205 1.5525 11.535 2.5425 11.875 3.5625 C6.595 3.5625 1.315 3.5625 -4.125 3.5625 C-4.125 2.5725 -4.125 1.5825 -4.125 0.5625 C-2.125 -0.4375 -2.125 -0.4375 0 0 Z " fill="#2E3040" transform="translate(1036.125,48.4375)"/>
<path d="M0 0 C0.33 0.66 0.66 1.32 1 2 C-0.8125 3.5625 -0.8125 3.5625 -3 5 C-3.99 4.67 -4.98 4.34 -6 4 C-8.64653258 4.44150449 -8.64653258 4.44150449 -11 6 C-12.37189827 9.02982306 -12.37189827 9.02982306 -13 12 C-13.66 12 -14.32 12 -15 12 C-14.690625 11.236875 -14.38125 10.47375 -14.0625 9.6875 C-13.32106407 7.81210323 -12.63771783 5.91315348 -12 4 C-11.34 4 -10.68 4 -10 4 C-10 3.34 -10 2.68 -10 2 C-6.49223216 0.39644899 -3.85645121 -0.22036864 0 0 Z " fill="#756C38" transform="translate(153,2)"/>
<path d="M0 0 C2.97 0 5.94 0 9 0 C9 1.98 9 3.96 9 6 C7.35 6 5.7 6 4 6 C4 4.35 4 2.7 4 1 C3.34 1 2.68 1 2 1 C2 2.65 2 4.3 2 6 C1.34 6 0.68 6 0 6 C0 4.02 0 2.04 0 0 Z " fill="#84858F" transform="translate(444,740)"/>
<path d="M0 0 C0.66 0 1.32 0 2 0 C2 2.97 2 5.94 2 9 C0.33388095 9.042721 -1.33382885 9.04063832 -3 9 C-4 8 -4 8 -4.0625 5.4375 C-4.041875 4.633125 -4.02125 3.82875 -4 3 C-2.68 2.67 -1.36 2.34 0 2 C0 1.34 0 0.68 0 0 Z " fill="#6FB3C2" transform="translate(675,378)"/>
<path d="M0 0 C0.99 0 1.98 0 3 0 C3 0.99 3 1.98 3 3 C3.99 3.33 4.98 3.66 6 4 C5.34 4 4.68 4 4 4 C3.67 6.97 3.34 9.94 3 13 C2.01 13 1.02 13 0 13 C0 8.71 0 4.42 0 0 Z " fill="#95CFDB" transform="translate(465,335)"/>
<path d="M0 0 C0.66 0 1.32 0 2 0 C2 0.66 2 1.32 2 2 C2.99 2 3.98 2 5 2 C5.38133299 3.9914056 5.71325582 5.99279077 6 8 C5 9 5 9 2.4375 9.0625 C1.633125 9.041875 0.82875 9.02125 0 9 C0 6.03 0 3.06 0 0 Z " fill="#89C8D5" transform="translate(507,372)"/>
<path d="M0 0 C1.32 0 2.64 0 4 0 C4 3.96 4 7.92 4 12 C2.68 11.67 1.36 11.34 0 11 C-1.125 3.375 -1.125 3.375 0 0 Z " fill="#C6E4EA" transform="translate(514,338)"/>
<path d="M0 0 C0.99 0 1.98 0 3 0 C3 4.62 3 9.24 3 14 C2.01 14 1.02 14 0 14 C0 9.38 0 4.76 0 0 Z " fill="#A6D3DC" transform="translate(586,339)"/>
<path d="M0 0 C1.2065625 0.0309375 1.2065625 0.0309375 2.4375 0.0625 C2.4375 2.3725 2.4375 4.6825 2.4375 7.0625 C0.7875 7.3925 -0.8625 7.7225 -2.5625 8.0625 C-2.94313221 5.7364143 -3.27519945 3.40194736 -3.5625 1.0625 C-2.5625 0.0625 -2.5625 0.0625 0 0 Z " fill="#86BDCA" transform="translate(720.5625,381.9375)"/>
<path d="M0 0 C0.66 0 1.32 0 2 0 C2.20625 0.9075 2.4125 1.815 2.625 2.75 C4.32190411 6.76086427 6.31223698 7.83544345 10 10 C10 10.33 10 10.66 10 11 C6.6875 11.3125 6.6875 11.3125 3 11 C0.41030587 7.97869019 -0.56309296 4.93216333 -1 1 C-0.67 0.67 -0.34 0.34 0 0 Z " fill="#C3C3C7" transform="translate(1004,48)"/>
<path d="M0 0 C1.4540625 0.0309375 1.4540625 0.0309375 2.9375 0.0625 C2.9375 2.0425 2.9375 4.0225 2.9375 6.0625 C0.9575 6.0625 -1.0225 6.0625 -3.0625 6.0625 C-3.44468767 4.40635343 -3.77645102 2.73792976 -4.0625 1.0625 C-3.0625 0.0625 -3.0625 0.0625 0 0 Z " fill="#7A7B86" transform="translate(680.0625,747.9375)"/>
<path d="M0 0 C2.475 0.495 2.475 0.495 5 1 C5 2.98 5 4.96 5 7 C5.66 7 6.32 7 7 7 C7 5.35 7 3.7 7 2 C7.66 2 8.32 2 9 2 C9 3.98 9 5.96 9 8 C7.35 8 5.7 8 4 8 C3.67 6.35 3.34 4.7 3 3 C2.34 3 1.68 3 1 3 C0.67 4.32 0.34 5.64 0 7 C0 4.69 0 2.38 0 0 Z " fill="#83C7D5" transform="translate(449,371)"/>
<path d="M0 0 C0.99 0 1.98 0 3 0 C3.10251672 5.12583611 3.03590199 9.94997778 2 15 C1.34 15 0.68 15 0 15 C0 10.05 0 5.1 0 0 Z " fill="#EEF7F8" transform="translate(540,300)"/>
<path d="M0 0 C0.99 0 1.98 0 3 0 C3 0.66 3 1.32 3 2 C4.98 2 6.96 2 9 2 C9.33 1.34 9.66 0.68 10 0 C10 2.64 10 5.28 10 8 C9.01 8.495 9.01 8.495 8 9 C7.67 8.34 7.34 7.68 7 7 C6.01 7 5.02 7 4 7 C2 4 2 4 2 1 C1.34 0.67 0.68 0.34 0 0 Z " fill="#4F515F" transform="translate(631,744)"/>
<path d="M0 0 C1.65 0 3.3 0 5 0 C5.33 1.65 5.66 3.3 6 5 C4.68 5.33 3.36 5.66 2 6 C2 6.66 2 7.32 2 8 C1.34 8 0.68 8 0 8 C0 5.36 0 2.72 0 0 Z " fill="#FFAE76" transform="translate(567,470)"/>
<path d="M0 0 C2 0 2 0 3.5 1.375 C3.995 1.91125 4.49 2.4475 5 3 C5.66 3.66 6.32 4.32 7 5 C6.34 6.65 5.68 8.3 5 10 C3.68 9.67 2.36 9.34 1 9 C0.67 6.03 0.34 3.06 0 0 Z " fill="#BEDDE4" transform="translate(651,345)"/>
<path d="M0 0 C3.96 0 7.92 0 12 0 C12 0.33 12 0.66 12 1 C9.69 1 7.38 1 5 1 C5 4.96 5 8.92 5 13 C2 10 2 10 1.70703125 7.73828125 C1.74183594 6.93777344 1.77664063 6.13726562 1.8125 5.3125 C1.83957031 4.50425781 1.86664062 3.69601562 1.89453125 2.86328125 C1.94673828 1.94095703 1.94673828 1.94095703 2 1 C1.34 0.67 0.68 0.34 0 0 Z " fill="#52A2B5" transform="translate(692,343)"/>
<path d="M0 0 C4.97821242 1.2734962 7.78600429 2.95954825 11 7 C11.8125 10.3125 11.8125 10.3125 12 13 C11.34 13 10.68 13 10 13 C8.33333333 9.66666667 6.66666667 6.33333333 5 3 C3.35 3 1.7 3 0 3 C0 2.01 0 1.02 0 0 Z " fill="#796D32" transform="translate(155,2)"/>
<path d="M0 0 C1.67542976 0.28604898 3.34385343 0.61781233 5 1 C4.67 2.65 4.34 4.3 4 6 C2.68 6 1.36 6 0 6 C-0.33 6.99 -0.66 7.98 -1 9 C-1.09765625 2.84765625 -1.09765625 2.84765625 -1 1 C-0.67 0.67 -0.34 0.34 0 0 Z " fill="#858690" transform="translate(563,741)"/>
<path d="M0 0 C1.65 0 3.3 0 5 0 C5.33 1.65 5.66 3.3 6 5 C5.195625 5.12375 4.39125 5.2475 3.5625 5.375 C2.2940625 5.684375 2.2940625 5.684375 1 6 C0.67 6.66 0.34 7.32 0 8 C0 5.36 0 2.72 0 0 Z " fill="#78B6C5" transform="translate(697,381)"/>
<path d="M0 0 C0.66 0 1.32 0 2 0 C2 2.97 2 5.94 2 9 C1.34 9 0.68 9 0 9 C0 7.35 0 5.7 0 4 C-0.66 4 -1.32 4 -2 4 C-2 5.65 -2 7.3 -2 9 C-2.66 9 -3.32 9 -4 9 C-4 6.69 -4 4.38 -4 2 C-2.68 2 -1.36 2 0 2 C0 1.34 0 0.68 0 0 Z " fill="#66B4C5" transform="translate(566,374)"/>
<path d="M0 0 C0.66 0 1.32 0 2 0 C2 4.29 2 8.58 2 13 C1.01 13 0.02 13 -1 13 C-1.02708567 11.39592672 -1.04643483 9.7917215 -1.0625 8.1875 C-1.07410156 7.29417969 -1.08570313 6.40085937 -1.09765625 5.48046875 C-1 3 -1 3 0 0 Z " fill="#B9DCE3" transform="translate(601,340)"/>
<path d="M0 0 C0.33 0 0.66 0 1 0 C1.04241723 2.33294775 1.04092937 4.66702567 1 7 C0 8 0 8 -2.06640625 8.09765625 C-2.89011719 8.08605469 -3.71382812 8.07445312 -4.5625 8.0625 C-5.38878906 8.05347656 -6.21507812 8.04445313 -7.06640625 8.03515625 C-7.70449219 8.02355469 -8.34257813 8.01195312 -9 8 C-9 7.67 -9 7.34 -9 7 C-6.36 7 -3.72 7 -1 7 C-1 6.34 -1 5.68 -1 5 C-2.65 5 -4.3 5 -6 5 C-6 4.01 -6 3.02 -6 2 C-4.02 2 -2.04 2 0 2 C0 1.34 0 0.68 0 0 Z " fill="#2999B1" transform="translate(533,343)"/>
<path d="M0 0 C2 2 2 2 2 5 C4.475 5.99 4.475 5.99 7 7 C3.25 8.125 3.25 8.125 1 7 C1.33 7.99 1.66 8.98 2 10 C1.34 10 0.68 10 0 10 C-1.6875 8.25 -1.6875 8.25 -3 6 C-2.6875 3.75 -2.6875 3.75 -2 2 C-1.34 2 -0.68 2 0 2 C0 1.34 0 0.68 0 0 Z " fill="#2797AF" transform="translate(543,341)"/>
<path d="M0 0 C2.64 0 5.28 0 8 0 C8 2.31 8 4.62 8 7 C7.67 7 7.34 7 7 7 C7 5.35 7 3.7 7 2 C6.34 2 5.68 2 5 2 C5 3.65 5 5.3 5 7 C4.34 7 3.68 7 3 7 C3 5.35 3 3.7 3 2 C2.34 2 1.68 2 1 2 C0.67 3.32 0.34 4.64 0 6 C0 4.02 0 2.04 0 0 Z " fill="#89C6D3" transform="translate(533,375)"/>
<path d="M0 0 C0.99 0 1.98 0 3 0 C3.33 1.32 3.66 2.64 4 4 C5.65 3.67 7.3 3.34 9 3 C9 3.66 9 4.32 9 5 C7.35 5.33 5.7 5.66 4 6 C3.67 6.99 3.34 7.98 3 9 C1.02 9.99 1.02 9.99 -1 11 C-0.01 7.7 0.98 4.4 2 1 C1.34 0.67 0.68 0.34 0 0 Z " fill="#35A1B8" transform="translate(500,339)"/>
<path d="M0 0 C3.50109084 1.16703028 4.23984869 1.8149643 6 5 C6.1875 8.75 6.1875 8.75 6 12 C5.01 12.33 4.02 12.66 3 13 C2.34 12.67 1.68 12.34 1 12 C0.67 12.66 0.34 13.32 0 14 C0 13.01 0 12.02 0 11 C0.66 11 1.32 11 2 11 C2.76716851 8.14921909 2.76716851 8.14921909 3 5 C1.64555699 3.22809091 1.64555699 3.22809091 0 2 C0 1.34 0 0.68 0 0 Z " fill="#453E21" transform="translate(165,4)"/>
<path d="M0 0 C2.0625 0.4375 2.0625 0.4375 4 1 C4 2.98 4 4.96 4 7 C2.35 7 0.7 7 -1 7 C-1.04254356 5.00045254 -1.04080783 2.99958364 -1 1 C-0.67 0.67 -0.34 0.34 0 0 Z " fill="#FFB17B" transform="translate(562,469)"/>
<path d="M0 0 C2.0625 0.4375 2.0625 0.4375 4 1 C4 2.98 4 4.96 4 7 C2.35 7 0.7 7 -1 7 C-1.04254356 5.00045254 -1.04080783 2.99958364 -1 1 C-0.67 0.67 -0.34 0.34 0 0 Z " fill="#7DBAC8" transform="translate(679,380)"/>
<path d="M0 0 C6.15234375 -0.09765625 6.15234375 -0.09765625 8 0 C9 1 9 1 9.0625 3.5625 C9.041875 4.366875 9.02125 5.17125 9 6 C8.67 4.68 8.34 3.36 8 2 C7.01 2 6.02 2 5 2 C4.67 3.32 4.34 4.64 4 6 C4 4.68 4 3.36 4 2 C3.34 2 2.68 2 2 2 C2 3.32 2 4.64 2 6 C1.34 6 0.68 6 0 6 C0 4.02 0 2.04 0 0 Z " fill="#8DCAD6" transform="translate(497,374)"/>
<path d="M0 0 C1.2065625 0.0309375 1.2065625 0.0309375 2.4375 0.0625 C2.4375 1.7125 2.4375 3.3625 2.4375 5.0625 C0.7875 5.3925 -0.8625 5.7225 -2.5625 6.0625 C-2.94468767 4.40635343 -3.27645102 2.73792976 -3.5625 1.0625 C-2.5625 0.0625 -2.5625 0.0625 0 0 Z " fill="#A3D4DE" transform="translate(506.5625,343.9375)"/>
<path d="M0 0 C0.9590625 0.2784375 0.9590625 0.2784375 1.9375 0.5625 C2.9584375 0.7790625 2.9584375 0.7790625 4 1 C4.33 0.67 4.66 0.34 5 0 C6.66617115 -0.04063832 8.33388095 -0.042721 10 0 C9.67 1.32 9.34 2.64 9 4 C6.69 4.66 4.38 5.32 2 6 C1.855625 5.38125 1.71125 4.7625 1.5625 4.125 C1.06847775 1.96741678 1.06847775 1.96741678 0 0 Z " fill="#61B6C8" transform="translate(480,339)"/>
<path d="M0 0 C2.64 0 5.28 0 8 0 C7.67 1.32 7.34 2.64 7 4 C4.03 4 1.06 4 -2 4 C-1.34 2.68 -0.68 1.36 0 0 Z " fill="#8B8C94" transform="translate(1017,42)"/>
<path d="M0 0 C1.65 0.33 3.3 0.66 5 1 C4.67 2.65 4.34 4.3 4 6 C2.35 5.67 0.7 5.34 -1 5 C-0.67 3.35 -0.34 1.7 0 0 Z " fill="#FFAA6F" transform="translate(575,470)"/>
<path d="M0 0 C0 3.96 0 7.92 0 12 C-2 8 -2 8 -3 5 C-5.00016466 3.79117904 -5.00016466 3.79117904 -7 3 C-7 2.34 -7 1.68 -7 1 C-4.50935112 0.31292445 -2.62113708 0 0 0 Z " fill="#43A4B9" transform="translate(554,342)"/>
<path d="M0 0 C0.66 0 1.32 0 2 0 C2.75612577 5.23471686 3.2063366 9.77254141 2 15 C1.34 15 0.68 15 0 15 C0 10.05 0 5.1 0 0 Z " fill="#F9FCFC" transform="translate(526,300)"/>
<path d="M0 0 C0.99 0.33 1.98 0.66 3 1 C3.33 3.31 3.66 5.62 4 8 C2.02 8 0.04 8 -2 8 C-1.125 2.25 -1.125 2.25 0 0 Z " fill="#8A8B94" transform="translate(613,743)"/>
<path d="M0 0 C0.99 0 1.98 0 3 0 C3.66 2.64 4.32 5.28 5 8 C4.34 8 3.68 8 3 8 C3 7.34 3 6.68 3 6 C1.35 6.66 -0.3 7.32 -2 8 C-1.34 5.36 -0.68 2.72 0 0 Z " fill="#8B8C95" transform="translate(492,739)"/>
<path d="M0 0 C0.66 0 1.32 0 2 0 C2 0.99 2 1.98 2 3 C3.32 3.33 4.64 3.66 6 4 C6 5.65 6 7.3 6 9 C5.34 9 4.68 9 4 9 C4 7.35 4 5.7 4 4 C3.34 4 2.68 4 2 4 C2 5.65 2 7.3 2 9 C1.34 9 0.68 9 0 9 C0 6.03 0 3.06 0 0 Z " fill="#7BD9EA" transform="translate(511,417)"/>
<path d="M0 0 C2.0625 0.4375 2.0625 0.4375 4 1 C4 2.65 4 4.3 4 6 C2.0625 6.5625 2.0625 6.5625 0 7 C-1 6 -1 6 -1.125 3.5 C-1 1 -1 1 0 0 Z " fill="#7FBAC7" transform="translate(705,381)"/>
<path d="M0 0 C1.67542976 0.28604898 3.34385343 0.61781233 5 1 C4.67 2.65 4.34 4.3 4 6 C2.68 6 1.36 6 0 6 C-0.38218767 4.34385343 -0.71395102 2.67542976 -1 1 C-0.67 0.67 -0.34 0.34 0 0 Z " fill="#6DB3C3" transform="translate(653,380)"/>
<path d="M0 0 C2.0625 0.4375 2.0625 0.4375 4 1 C4 2.65 4 4.3 4 6 C2.0625 6.5625 2.0625 6.5625 0 7 C-1 6 -1 6 -1.125 3.5 C-1 1 -1 1 0 0 Z " fill="#7BBFCD" transform="translate(557,376)"/>
<path d="M0 0 C2.31 0.33 4.62 0.66 7 1 C7 1.66 7 2.32 7 3 C6.34 3 5.68 3 5 3 C4.67 3.99 4.34 4.98 4 6 C2.68 6 1.36 6 0 6 C0 4.02 0 2.04 0 0 Z " fill="#96969E" transform="translate(1008,40)"/>
<path d="M0 0 C0.05395478 1.62463842 0.09277195 3.24978541 0.125 4.875 C0.14820313 5.77992187 0.17140625 6.68484375 0.1953125 7.6171875 C0 10 0 10 -2 12 C-3 11 -3 11 -3.09765625 8.71484375 C-3.08605469 7.79832031 -3.07445312 6.88179687 -3.0625 5.9375 C-3.05347656 5.01839844 -3.04445312 4.09929688 -3.03515625 3.15234375 C-3.02355469 2.44207031 -3.01195312 1.73179688 -3 1 C-1 0 -1 0 0 0 Z " fill="#B7911D" transform="translate(153,15)"/>
<path d="M0 0 C1.98 0.99 1.98 0.99 4 2 C4 3.32 4 4.64 4 6 C5.32 6.66 6.64 7.32 8 8 C5.36 8 2.72 8 0 8 C0 5.36 0 2.72 0 0 Z " fill="#686975" transform="translate(576,743)"/>
<path d="M0 0 C0.66 0 1.32 0 2 0 C2 1.98 2 3.96 2 6 C2.99 6.33 3.98 6.66 5 7 C5 7.66 5 8.32 5 9 C2.125 9.125 2.125 9.125 -1 9 C-1.66 8.34 -2.32 7.68 -3 7 C-3 6.01 -3 5.02 -3 4 C-2.01 4 -1.02 4 0 4 C0 2.68 0 1.36 0 0 Z " fill="#4C4D5B" transform="translate(703,746)"/>
<path d="M0 0 C1.65 0 3.3 0 5 0 C5 1.98 5 3.96 5 6 C3.35 6 1.7 6 0 6 C0 4.02 0 2.04 0 0 Z " fill="#75D7E9" transform="translate(481,419)"/>
<path d="M0 0 C0.99 0 1.98 0 3 0 C3 3.3 3 6.6 3 10 C2.01 10 1.02 10 0 10 C0 6.7 0 3.4 0 0 Z " fill="#BEDCE3" transform="translate(675,346)"/>
<path d="M0 0 C0.99 0 1.98 0 3 0 C3.33 0.66 3.66 1.32 4 2 C6.52733235 2.65555119 6.52733235 2.65555119 9 3 C9 3.66 9 4.32 9 5 C8.21625 5.12375 7.4325 5.2475 6.625 5.375 C3.85942178 5.79117993 3.85942178 5.79117993 2 8 C1.34 8 0.68 8 0 8 C0.66 5.69 1.32 3.38 2 1 C1.34 0.67 0.68 0.34 0 0 Z " fill="#449DB1" transform="translate(662,345)"/>
<path d="M0 0 C0.33 0 0.66 0 1 0 C1 5.28 1 10.56 1 16 C0.67 16 0.34 16 0 16 C-0.33 13.69 -0.66 11.38 -1 9 C-1.99 9 -2.98 9 -4 9 C-3.34 7.02 -2.68 5.04 -2 3 C-1.34 3 -0.68 3 0 3 C0 2.01 0 1.02 0 0 Z " fill="#4AA6BA" transform="translate(574,301)"/>
<path d="M0 0 C2.97 0.495 2.97 0.495 6 1 C6.33 3.31 6.66 5.62 7 8 C1.21538462 4.55384615 1.21538462 4.55384615 0.125 1.75 C0.08375 1.1725 0.0425 0.595 0 0 Z " fill="#2F2646" transform="translate(140,20)"/>
<path d="M0 0 C2.33294775 -0.04241723 4.66702567 -0.04092937 7 0 C8 1 8 1 8.0625 4.0625 C8.041875 5.031875 8.02125 6.00125 8 7 C7.67 7 7.34 7 7 7 C7 5.35 7 3.7 7 2 C4.66924071 2.95865509 4.66924071 2.95865509 3 6 C3 4.68 3 3.36 3 2 C2.34 2 1.68 2 1 2 C0.67 3.32 0.34 4.64 0 6 C0 4.02 0 2.04 0 0 Z " fill="#9BC8D3" transform="translate(734,382)"/>
<path d="M0 0 C2.33294775 -0.04241723 4.66702567 -0.04092937 7 0 C8 1 8 1 8.0625 4.0625 C8.041875 5.031875 8.02125 6.00125 8 7 C7.67 7 7.34 7 7 7 C7 5.35 7 3.7 7 2 C4.66924071 2.95865509 4.66924071 2.95865509 3 6 C3 4.68 3 3.36 3 2 C2.34 2 1.68 2 1 2 C0.67 3.32 0.34 4.64 0 6 C0 4.02 0 2.04 0 0 Z " fill="#9BCCD7" transform="translate(614,378)"/>
<path d="M0 0 C1.65 0 3.3 0 5 0 C5 1.98 5 3.96 5 6 C3.35 6 1.7 6 0 6 C0 4.02 0 2.04 0 0 Z " fill="#88C7D4" transform="translate(514,375)"/>
<path d="M0 0 C1.65 0 3.3 0 5 0 C5.12375 0.61875 5.2475 1.2375 5.375 1.875 C5.87197356 4.19120832 5.87197356 4.19120832 8 6 C5.36 5.67 2.72 5.34 0 5 C0 3.35 0 1.7 0 0 Z " fill="#A6D1DA" transform="translate(641,349)"/>
<path d="M0 0 C1.76462683 3.08809695 2 4.23312136 2 8 C3.32 8.33 4.64 8.66 6 9 C6 9.66 6 10.32 6 11 C4.68 10.67 3.36 10.34 2 10 C2 10.66 2 11.32 2 12 C1.34 12 0.68 12 0 12 C-0.19477739 10.37585622 -0.38059458 8.75063577 -0.5625 7.125 C-0.66691406 6.22007812 -0.77132812 5.31515625 -0.87890625 4.3828125 C-1 2 -1 2 0 0 Z " fill="#389CB2" transform="translate(589,340)"/>
<path d="M0 0 C0.66 0 1.32 0 2 0 C2.33 1.65 2.66 3.3 3 5 C4.65 5 6.3 5 8 5 C7.67 5.99 7.34 6.98 7 8 C5.00045254 8.04254356 2.99958364 8.04080783 1 8 C0 7 0 7 -0.0625 3.4375 C-0.041875 2.303125 -0.02125 1.16875 0 0 Z " fill="#CAE5EB" transform="translate(565,344)"/>
<path d="M0 0 C1.66611905 -0.042721 3.33382885 -0.04063832 5 0 C6 1 6 1 6.09765625 2.84765625 C6.06510417 4.8984375 6.03255208 6.94921875 6 9 C5.01 9 4.02 9 3 9 C3 6.36 3 3.72 3 1 C2.01 0.67 1.02 0.34 0 0 Z " fill="#D7ECF1" transform="translate(486,340)"/>
<path d="M0 0 C1.32 0 2.64 0 4 0 C4 1.98 4 3.96 4 6 C2.35 5.67 0.7 5.34 -1 5 C-0.67 3.35 -0.34 1.7 0 0 Z " fill="#797A85" transform="translate(570,744)"/>
<path d="M0 0 C2.375 -0.1875 2.375 -0.1875 5 0 C7 3 7 3 7 6 C6.34 6 5.68 6 5 6 C5 5.34 5 4.68 5 4 C4.34 4 3.68 4 3 4 C3 4.66 3 5.32 3 6 C2.34 6 1.68 6 1 6 C0.67 4.02 0.34 2.04 0 0 Z " fill="#8E8F98" transform="translate(454,740)"/>
<path d="M0 0 C2.475 0.495 2.475 0.495 5 1 C5 2.65 5 4.3 5 6 C3.35 6 1.7 6 0 6 C0 4.02 0 2.04 0 0 Z " fill="#89C5D1" transform="translate(579,377)"/>
<path d="M0 0 C2.475 0.495 2.475 0.495 5 1 C5 2.65 5 4.3 5 6 C3.35 5.67 1.7 5.34 0 5 C0 3.35 0 1.7 0 0 Z " fill="#85C4D2" transform="translate(543,376)"/>
<path d="M0 0 C0.33 0 0.66 0 1 0 C1 4.29 1 8.58 1 13 C0.01 12.67 -0.98 12.34 -2 12 C-3.6442351 7.06729471 -2.18615592 4.45975807 0 0 Z " fill="#40A8BE" transform="translate(464,335)"/>
<path d="M0 0 C2.64 0 5.28 0 8 0 C8.33 1.65 8.66 3.3 9 5 C8.34 5 7.68 5 7 5 C7 4.01 7 3.02 7 2 C4.03 1.505 4.03 1.505 1 1 C1 4.3 1 7.6 1 11 C0.67 11 0.34 11 0 11 C0 7.37 0 3.74 0 0 Z " fill="#E9F5F7" transform="translate(454,336)"/>
<path d="M0 0 C5.625 -0.25 5.625 -0.25 9 2 C9 2.99 9 3.98 9 5 C7.66666667 4.66666667 6.33333333 4.33333333 5 4 C4.278125 3.87625 3.55625 3.7525 2.8125 3.625 C2.214375 3.41875 1.61625 3.2125 1 3 C0.67 2.01 0.34 1.02 0 0 Z " fill="#CAE5EB" transform="translate(549,300)"/>
<path d="M0 0 C0.66 0.33 1.32 0.66 2 1 C2.40729228 3.32156597 2.74438677 5.6568787 3 8 C1.02 8 -0.96 8 -3 8 C-3 7.34 -3 6.68 -3 6 C-2.34 6 -1.68 6 -1 6 C-1.0309375 4.7934375 -1.0309375 4.7934375 -1.0625 3.5625 C-1 1 -1 1 0 0 Z " fill="#B99E37" transform="translate(152,5)"/>
<path d="M0 0 C1.32 0 2.64 0 4 0 C4 1.98 4 3.96 4 6 C2.35 6 0.7 6 -1 6 C-1.042721 4.33388095 -1.04063832 2.66617115 -1 1 C-0.67 0.67 -0.34 0.34 0 0 Z " fill="#92939B" transform="translate(600,745)"/>
<path d="M0 0 C2.0625 0.4375 2.0625 0.4375 4 1 C4 2.65 4 4.3 4 6 C2.35 6 0.7 6 -1 6 C-1.042721 4.33388095 -1.04063832 2.66617115 -1 1 C-0.67 0.67 -0.34 0.34 0 0 Z " fill="#91C5D1" transform="translate(663,380)"/>
<path d="M0 0 C0.66 0.33 1.32 0.66 2 1 C2.625 4.0625 2.625 4.0625 3 7 C1.02 7.33 -0.96 7.66 -3 8 C-1.125 1.125 -1.125 1.125 0 0 Z " fill="#8CBECA" transform="translate(762,381)"/>
<path d="M0 0 C1.32 0 2.64 0 4 0 C4 2.31 4 4.62 4 7 C2.35 6.67 0.7 6.34 -1 6 C-0.67 4.02 -0.34 2.04 0 0 Z " fill="#80C7D6" transform="translate(420,371)"/>
<path d="M0 0 C1.22589844 0.01353516 1.22589844 0.01353516 2.4765625 0.02734375 C3.41628906 0.04474609 3.41628906 0.04474609 4.375 0.0625 C4.705 1.0525 5.035 2.0425 5.375 3.0625 C4.611875 2.876875 3.84875 2.69125 3.0625 2.5 C0.28532625 1.83430827 0.28532625 1.83430827 -2.625 3.0625 C-3.615 3.0625 -4.605 3.0625 -5.625 3.0625 C-5.955 3.7225 -6.285 4.3825 -6.625 5.0625 C-6.625 3.7425 -6.625 2.4225 -6.625 1.0625 C-4.21954362 -0.14022819 -2.67503047 -0.03821472 0 0 Z " fill="#323443" transform="translate(1012.625,47.9375)"/>
<path d="M0 0 C1.32 0.33 2.64 0.66 4 1 C3.16855469 1.72316406 3.16855469 1.72316406 2.3203125 2.4609375 C1.59585938 3.09257813 0.87140625 3.72421875 0.125 4.375 C-0.59429688 5.00148438 -1.31359375 5.62796875 -2.0546875 6.2734375 C-3.4076598 7.47426834 -4.7208345 8.7208345 -6 10 C-6.33 9.01 -6.66 8.02 -7 7 C-5.37660195 5.29115995 -3.70680947 3.62553283 -2 2 C-1.34 2 -0.68 2 0 2 C0 1.34 0 0.68 0 0 Z " fill="#BFC0C4" transform="translate(1005,37)"/>
<path d="M0 0 C0.66 0 1.32 0 2 0 C2.3763524 3.9517002 2.09508438 5.82294633 0.1875 9.375 C-0.534375 10.24125 -1.25625 11.1075 -2 12 C-2.99 12 -3.98 12 -5 12 C-5 11.34 -5 10.68 -5 10 C-4.360625 9.4225 -3.72125 8.845 -3.0625 8.25 C-0.55649582 5.51617726 -0.33019491 3.63214398 0 0 Z " fill="#2E244D" transform="translate(163,14)"/>
<path d="M0 0 C0 2.64 0 5.28 0 8 C-2.475 7.01 -2.475 7.01 -5 6 C-5 4.35 -5 2.7 -5 1 C-1.125 0 -1.125 0 0 0 Z " fill="#343646" transform="translate(508,740)"/>
<path d="M0 0 C0.66 0 1.32 0 2 0 C2 0.99 2 1.98 2 3 C2.99 3 3.98 3 5 3 C5 4.98 5 6.96 5 9 C4.67 9 4.34 9 4 9 C4 7.35 4 5.7 4 4 C3.34 4 2.68 4 2 4 C2 5.65 2 7.3 2 9 C1.34 9 0.68 9 0 9 C0 6.03 0 3.06 0 0 Z " fill="#9798A0" transform="translate(508,739)"/>
<path d="M0 0 C0.66 0 1.32 0 2 0 C3.125 7.625 3.125 7.625 2 11 C1.01 11 0.02 11 -1 11 C-0.67 7.37 -0.34 3.74 0 0 Z " fill="#6D6E7A" transform="translate(466,738)"/>
<path d="M0 0 C1.98 0.495 1.98 0.495 4 1 C4 2.98 4 4.96 4 7 C2.35 7 0.7 7 -1 7 C-1 3 -1 3 0 2 C0 1.34 0 0.68 0 0 Z " fill="#7FABB9" transform="translate(671,425)"/>
<path d="M0 0 C0.99 0 1.98 0 3 0 C3.103125 0.61875 3.20625 1.2375 3.3125 1.875 C3.87525373 4.36526484 3.87525373 4.36526484 7 6 C6.01 6.33 5.02 6.66 4 7 C4 7.99 4 8.98 4 10 C1.69 10 -0.62 10 -3 10 C-3 9.67 -3 9.34 -3 9 C-1.35 9 0.3 9 2 9 C1.51421457 5.87709365 1.0013988 3.00419641 0 0 Z " fill="#2EA4BC" transform="translate(416,368)"/>
<path d="M0 0 C2.0625 0.4375 2.0625 0.4375 4 1 C3.01 1.495 3.01 1.495 2 2 C2 3.32 2 4.64 2 6 C2.66 6.33 3.32 6.66 4 7 C4 7.66 4 8.32 4 9 C2.35 8.67 0.7 8.34 -1 8 C-1.04241723 5.66705225 -1.04092937 3.33297433 -1 1 C-0.67 0.67 -0.34 0.34 0 0 Z " fill="#E6F2F4" transform="translate(631,345)"/>
<path d="M0 0 C1.98 0 3.96 0 6 0 C6 1.32 6 2.64 6 4 C4.02 4 2.04 4 0 4 C0 2.68 0 1.36 0 0 Z " fill="#2C2B32" transform="translate(991,29)"/>
<path d="M0 0 C0.33 0 0.66 0 1 0 C1 3.3 1 6.6 1 10 C0.01 9.67 -0.98 9.34 -2 9 C-2.125 5.625 -2.125 5.625 -2 2 C-1.34 1.34 -0.68 0.68 0 0 Z " fill="#6E6EA3" transform="translate(146,10)"/>
<path d="M0 0 C1.65 0 3.3 0 5 0 C4.67 1.98 4.34 3.96 4 6 C2.68 6 1.36 6 0 6 C0 4.02 0 2.04 0 0 Z " fill="#6A6B77" transform="translate(660,747)"/>
<path d="M0 0 C1.67542976 0.28604898 3.34385343 0.61781233 5 1 C5 2.32 5 3.64 5 5 C3.35 5 1.7 5 0 5 C-0.5625 3.0625 -0.5625 3.0625 -1 1 C-0.67 0.67 -0.34 0.34 0 0 Z " fill="#AED4DD" transform="translate(666,350)"/>
<path d="M0 0 C0.66 0.33 1.32 0.66 2 1 C2.125 3.875 2.125 3.875 2 7 C1.34 7.66 0.68 8.32 0 9 C-3.125 8.625 -3.125 8.625 -6 8 C-5.38125 7.7525 -4.7625 7.505 -4.125 7.25 C-1.62223548 5.77778558 -1.0059419 4.68251172 0 2 C0 1.34 0 0.68 0 0 Z " fill="#DBEDF1" transform="translate(570,302)"/>
<path d="M0 0 C1.98 0 3.96 0 6 0 C7.125 3.75 7.125 3.75 6 6 C5.34 6 4.68 6 4 6 C4 4.35 4 2.7 4 1 C1.48916886 2.25541557 1.12874554 3.50063488 0 6 C0 4.02 0 2.04 0 0 Z " fill="#8C8C96" transform="translate(627,746)"/>
<path d="M0 0 C0.99 0.33 1.98 0.66 3 1 C3.33 2.65 3.66 4.3 4 6 C2.35 5.67 0.7 5.34 -1 5 C-0.67 3.35 -0.34 1.7 0 0 Z " fill="#90919A" transform="translate(544,743)"/>
<path d="M0 0 C2.0625 0.4375 2.0625 0.4375 4 1 C3.34 1 2.68 1 2 1 C2.33 3.31 2.66 5.62 3 8 C2.34 8 1.68 8 1 8 C0.67 8.66 0.34 9.32 0 10 C-0.19412181 8.52168779 -0.38012131 7.04230684 -0.5625 5.5625 C-0.66691406 4.73878906 -0.77132813 3.91507812 -0.87890625 3.06640625 C-0.91886719 2.38449219 -0.95882813 1.70257813 -1 1 C-0.67 0.67 -0.34 0.34 0 0 Z " fill="#309FB7" transform="translate(492,339)"/>
<path d="M0 0 C3.3 0.33 6.6 0.66 10 1 C9.67 1.99 9.34 2.98 9 4 C2.25 4.125 2.25 4.125 0 3 C0 2.01 0 1.02 0 0 Z " fill="#ECF6F8" transform="translate(546,312)"/>
<path d="M0 0 C1.65 0 3.3 0 5 0 C4.67 1.65 4.34 3.3 4 5 C2.68 5 1.36 5 0 5 C0 3.35 0 1.7 0 0 Z " fill="#2192AB" transform="translate(564,304)"/>
<path d="M0 0 C1.32 0.33 2.64 0.66 4 1 C3.34 1 2.68 1 2 1 C1.896875 1.598125 1.79375 2.19625 1.6875 2.8125 C0.91123545 5.28243264 -0.07088921 6.32251235 -2 8 C-2.6875 6.25 -2.6875 6.25 -3 4 C-1.5625 1.75 -1.5625 1.75 0 0 Z " fill="#312A12" transform="translate(139,5)"/>
<path d="M0 0 C1.67542976 0.28604898 3.34385343 0.61781233 5 1 C5 2.98 5 4.96 5 7 C4.34 7 3.68 7 3 7 C3 5.35 3 3.7 3 2 C2.34 2 1.68 2 1 2 C1.33 3.65 1.66 5.3 2 7 C1.34 7 0.68 7 0 7 C-0.38133299 5.0085944 -0.71325582 3.00720923 -1 1 C-0.67 0.67 -0.34 0.34 0 0 Z " fill="#8E8E97" transform="translate(593,744)"/>
<path d="M0 0 C0.99 0 1.98 0 3 0 C3.33 1.65 3.66 3.3 4 5 C5.32 4.67 6.64 4.34 8 4 C8 4.66 8 5.32 8 6 C6 7.625 6 7.625 4 9 C3.34 8.67 2.68 8.34 2 8 C2 5.69 2 3.38 2 1 C1.34 0.67 0.68 0.34 0 0 Z " fill="#8EC9D5" transform="translate(535,337)"/>
<path d="M0 0 C2.475 0.495 2.475 0.495 5 1 C4.67 2.32 4.34 3.64 4 5 C2.68 5 1.36 5 0 5 C0 3.35 0 1.7 0 0 Z " fill="#1F94AD" transform="translate(529,302)"/>
<path d="M0 0 C0.99 0 1.98 0 3 0 C3 2.64 3 5.28 3 8 C2.01 7.67 1.02 7.34 0 7 C0 4.69 0 2.38 0 0 Z " fill="#84858E" transform="translate(1026,40)"/>
<path d="M0 0 C0.33 0 0.66 0 1 0 C1.12375 1.2375 1.2475 2.475 1.375 3.75 C1.76085328 6.92070736 2.44002696 9.19204853 4 12 C4 12.99 4 13.98 4 15 C3.34 15 2.68 15 2 15 C-0.10428384 9.87080814 -0.21755666 5.4389165 0 0 Z " fill="#474125" transform="translate(134,8)"/>
<path d="M0 0 C0.99 0 1.98 0 3 0 C3.33 1.98 3.66 3.96 4 6 C2.68 6.33 1.36 6.66 0 7 C-0.93423645 3.98968256 -1.04449911 3.13349732 0 0 Z " fill="#82838D" transform="translate(671,747)"/>
<path d="M0 0 C1.32 0 2.64 0 4 0 C4.33 0.99 4.66 1.98 5 3 C4.01 3.33 3.02 3.66 2 4 C2.66 4.66 3.32 5.32 4 6 C2.35 5.67 0.7 5.34 -1 5 C-0.67 3.35 -0.34 1.7 0 0 Z " fill="#8E8F98" transform="translate(580,744)"/>
<path d="M0 0 C2.0625 0.4375 2.0625 0.4375 4 1 C4 1.99 4 2.98 4 4 C2.68 4 1.36 4 0 4 C0 5.65 0 7.3 0 9 C-0.33 9 -0.66 9 -1 9 C-1.09765625 2.84765625 -1.09765625 2.84765625 -1 1 C-0.67 0.67 -0.34 0.34 0 0 Z " fill="#585967" transform="translate(437,736)"/>
<path d="M0 0 C1.98 0 3.96 0 6 0 C6 0.66 6 1.32 6 2 C5.34 2 4.68 2 4 2 C4 3.98 4 5.96 4 8 C3.34 8 2.68 8 2 8 C2 5.69 2 3.38 2 1 C1.34 0.67 0.68 0.34 0 0 Z " fill="#79D8EA" transform="translate(476,416)"/>
<path d="M0 0 C1.4540625 0.0309375 1.4540625 0.0309375 2.9375 0.0625 C3.2675 0.7225 3.5975 1.3825 3.9375 2.0625 C2.2875 1.7325 0.6375 1.4025 -1.0625 1.0625 C-1.0625 1.7225 -1.0625 2.3825 -1.0625 3.0625 C-0.4025 3.3925 0.2575 3.7225 0.9375 4.0625 C-0.3825 4.3925 -1.7025 4.7225 -3.0625 5.0625 C-3.625 3.125 -3.625 3.125 -4.0625 1.0625 C-3.0625 0.0625 -3.0625 0.0625 0 0 Z " fill="#D1E8EE" transform="translate(548.0625,341.9375)"/>
<path d="M0 0 C0.33 0 0.66 0 1 0 C1 2.97 1 5.94 1 9 C0.01 8.67 -0.98 8.34 -2 8 C-2.20086443 4.28400809 -2.1519437 3.22791555 0 0 Z " fill="#6CB3C2" transform="translate(650,377)"/>
<path d="M0 0 C0.99 0.33 1.98 0.66 3 1 C3.33 2.98 3.66 4.96 4 7 C2.35 7 0.7 7 -1 7 C-0.67 4.69 -0.34 2.38 0 0 Z " fill="#4CA2B6" transform="translate(638,380)"/>
<path d="M0 0 C0.66 0 1.32 0 2 0 C2 1.98 2 3.96 2 6 C-0.64 6 -3.28 6 -6 6 C-6 5.34 -6 4.68 -6 4 C-4.02 4 -2.04 4 0 4 C0 2.68 0 1.36 0 0 Z " fill="#3C9BB0" transform="translate(628,346)"/>
<path d="M0 0 C0.66 0 1.32 0 2 0 C2.33 0.66 2.66 1.32 3 2 C3.66 2.33 4.32 2.66 5 3 C4.01 4.485 4.01 4.485 3 6 C2.34 6 1.68 6 1 6 C0.67 6.66 0.34 7.32 0 8 C0 5.36 0 2.72 0 0 Z " fill="#94CFDB" transform="translate(459,371)"/>
<path d="M0 0 C0.66 0.33 1.32 0.66 2 1 C2 2.65 2 4.3 2 6 C-0.31 6 -2.62 6 -5 6 C-5.33 5.34 -5.66 4.68 -6 4 C-4.02 4 -2.04 4 0 4 C0 2.68 0 1.36 0 0 Z " fill="#389DB3" transform="translate(573,344)"/>
<path d="M0 0 C1.74627478 2.61941217 2.38722388 4.03824877 3 7 C1.68 7 0.36 7 -1 7 C-1.625 5.1875 -1.625 5.1875 -2 3 C-1.34 2.01 -0.68 1.02 0 0 Z " fill="#BDDFE7" transform="translate(534,309)"/>
<path d="M0 0 C1.32 0 2.64 0 4 0 C4.1875 2.375 4.1875 2.375 4 5 C3.01 5.66 2.02 6.32 1 7 C0.67 4.69 0.34 2.38 0 0 Z " fill="#A0A1A8" transform="translate(991,36)"/>
<path d="M0 0 C1.32 0 2.64 0 4 0 C4 1.98 4 3.96 4 6 C2.68 5.67 1.36 5.34 0 5 C0.66 4.67 1.32 4.34 2 4 C1.01 3.01 0.02 2.02 -1 1 C-0.67 0.67 -0.34 0.34 0 0 Z " fill="#93949D" transform="translate(652,747)"/>
<path d="M0 0 C0.66 0 1.32 0 2 0 C2 2.64 2 5.28 2 8 C1.01 7.67 0.02 7.34 -1 7 C-1.04254356 5.00045254 -1.04080783 2.99958364 -1 1 C-0.67 0.67 -0.34 0.34 0 0 Z " fill="#7C7D88" transform="translate(556,742)"/>
<path d="M0 0 C0.99 0 1.98 0 3 0 C2.67 1.65 2.34 3.3 2 5 C-0.97 4.505 -0.97 4.505 -4 4 C-2.68 3.67 -1.36 3.34 0 3 C0 2.01 0 1.02 0 0 Z " fill="#C7E1E6" transform="translate(704,351)"/>
<path d="M0 0 C0.99 1.485 0.99 1.485 2 3 C5.08365871 3.2502157 5.08365871 3.2502157 8 3 C7.01 4.485 7.01 4.485 6 6 C3.375 6.1875 3.375 6.1875 1 6 C0.67 4.02 0.34 2.04 0 0 Z " fill="#CDE5EA" transform="translate(620,348)"/>
<path d="M0 0 C0.598125 0.33 1.19625 0.66 1.8125 1 C4.05386471 2.20787988 4.05386471 2.20787988 7 2 C7 2.66 7 3.32 7 4 C5.35 4 3.7 4 2 4 C1.67 5.32 1.34 6.64 1 8 C0.67 5.36 0.34 2.72 0 0 Z " fill="#3F9CB1" transform="translate(639,345)"/>
<path d="M0 0 C2.475 0.495 2.475 0.495 5 1 C5 1.99 5 2.98 5 4 C3.35 4 1.7 4 0 4 C0 2.68 0 1.36 0 0 Z " fill="#0F849E" transform="translate(629,312)"/>
<path d="M0 0 C1.65 0 3.3 0 5 0 C4.67 1.32 4.34 2.64 4 4 C2.68 4 1.36 4 0 4 C0 2.68 0 1.36 0 0 Z " fill="#2C93AA" transform="translate(629,306)"/>
<path d="M0 0 C2.875 0.25 2.875 0.25 6 1 C7.375 3.0625 7.375 3.0625 8 5 C4.20411134 4.45773019 2.52788007 2.79872437 0 0 Z " fill="#E0EFF2" transform="translate(594,302)"/>
<path d="M0 0 C0.33 0 0.66 0 1 0 C1.33 2.64 1.66 5.28 2 8 C1.34 8 0.68 8 0 8 C0 7.34 0 6.68 0 6 C-1.32 6.33 -2.64 6.66 -4 7 C-3.67 6.01 -3.34 5.02 -3 4 C-2.34 3.67 -1.68 3.34 -1 3 C-0.67 2.01 -0.34 1.02 0 0 Z " fill="#484957" transform="translate(995,38)"/>
<path d="M0 0 C2.475 0.495 2.475 0.495 5 1 C4.67 2.32 4.34 3.64 4 5 C2.68 4.67 1.36 4.34 0 4 C0 2.68 0 1.36 0 0 Z " fill="#5D5E6B" transform="translate(694,749)"/>
<path d="M0 0 C0.33 0 0.66 0 1 0 C1 2.64 1 5.28 1 8 C0.01 8 -0.98 8 -2 8 C-1.125 2.25 -1.125 2.25 0 0 Z " fill="#5BD0E5" transform="translate(497,417)"/>
<path d="M0 0 C1.32 0 2.64 0 4 0 C3.67 1.65 3.34 3.3 3 5 C2.01 4.67 1.02 4.34 0 4 C0 2.68 0 1.36 0 0 Z " fill="#1E8BA4" transform="translate(632,347)"/>
<path d="M0 0 C0.33 0 0.66 0 1 0 C1 2.31 1 4.62 1 7 C0.67 6.01 0.34 5.02 0 4 C-1.65 3.67 -3.3 3.34 -5 3 C-5 2.34 -5 1.68 -5 1 C-2.525 1.495 -2.525 1.495 0 2 C0 1.34 0 0.68 0 0 Z " fill="#4FA7BA" transform="translate(598,344)"/>
<path d="M0 0 C0.99 0 1.98 0 3 0 C3 1.65 3 3.3 3 5 C1.68 4.67 0.36 4.34 -1 4 C-0.67 2.68 -0.34 1.36 0 0 Z " fill="#2392AB" transform="translate(578,345)"/>
<path d="M0 0 C0.99 0 1.98 0 3 0 C3 1.65 3 3.3 3 5 C1.68 4.67 0.36 4.34 -1 4 C-0.67 2.68 -0.34 1.36 0 0 Z " fill="#2C98B0" transform="translate(557,344)"/>
<path d="M0 0 C0.33 0 0.66 0 1 0 C1 3.96 1 7.92 1 12 C-0.32 11.34 -1.64 10.68 -3 10 C-2.67 9.01 -2.34 8.02 -2 7 C-1.67 7 -1.34 7 -1 7 C-0.67 4.69 -0.34 2.38 0 0 Z " fill="#1E8CA5" transform="translate(624,307)"/>
<path d="M0 0 C0.33 0 0.66 0 1 0 C1 2.31 1 4.62 1 7 C0.01 7.495 0.01 7.495 -1 8 C-1.625 5.125 -1.625 5.125 -2 2 C-1.34 1.34 -0.68 0.68 0 0 Z " fill="#138EA9" transform="translate(538,308)"/>
<path d="M0 0 C2.475 0.495 2.475 0.495 5 1 C5 2.32 5 3.64 5 5 C4.34 5 3.68 5 3 5 C3 4.34 3 3.68 3 3 C2.34 3 1.68 3 1 3 C0.67 3.66 0.34 4.32 0 5 C0 3.35 0 1.7 0 0 Z " fill="#26879E" transform="translate(742,383)"/>
<path d="M0 0 C0.99 0.33 1.98 0.66 3 1 C3.33 1.99 3.66 2.98 4 4 C3 5 3 5 0.4375 5.0625 C-0.7690625 5.0315625 -0.7690625 5.0315625 -2 5 C-1.34 4.67 -0.68 4.34 0 4 C0 2.68 0 1.36 0 0 Z " fill="#4DABBF" transform="translate(509,376)"/>
<path d="M0 0 C1.65 0 3.3 0 5 0 C5.33 0.66 5.66 1.32 6 2 C5.67 2.66 5.34 3.32 5 4 C3.68 4 2.36 4 1 4 C0.67 2.68 0.34 1.36 0 0 Z " fill="#8FC6D2" transform="translate(621,344)"/>
</svg>
